<svg xmlns="http://www.w3.org/2000/svg" width="1000" height="999.811" viewBox="0 0 264.583 264.533"><defs><clipPath id="b" clipPathUnits="userSpaceOnUse"><path d="M413.031 417.19c-60.433-3.343-112.307-53.585-112.876-118.904-.579-65.409 53.63-121.333 122.405-120.412 65.167.873 118.928 53.694 118.858 126.78-.43 26.664-12.357 55.638-36.76 79.039-23.541 22.579-51.66 33.719-83.706 33.72-2.615 0-5.254-.074-7.921-.223m124.571-121.136c.049 2.629 0 5.258-.13 7.866.14-2.608.19-5.227.14-7.855-.02-.924-.039-1.846-.09-2.768.04.922.06 1.835.08 2.757m-7.073-37.842a98.378 98.378 0 0 0-1.548-3.957 119.01 119.01 0 0 1 1.548 3.957m-2.387-5.932c.28.655.56 1.309.839 1.965a107.593 107.593 0 0 0-6.403-13.005 109.583 109.583 0 0 1 5.564 11.04"/></clipPath><clipPath id="a" clipPathUnits="userSpaceOnUse"><path d="M0 595.276h841.89V0H0Z"/></clipPath></defs><g clip-path="url(#a)" transform="matrix(.72504 0 0 -.72504 -172.911 348.067)"><path d="M0 0c.103-109.797-80.109-189.13-177.305-190.448-102.602-1.378-183.473 82.63-182.609 180.88.865 98.132 78.234 173.597 168.381 178.623 52.752 2.945 98.704-13.642 136.7-50.334C-18.449 83.583-.646 40.062 0 0" style="fill:#191917;fill-opacity:1;fill-rule:nonzero;stroke:none" transform="translate(600.905 308.177)"/><path d="M0 0c-3.821 0-7.682-.109-11.581-.327-92.272-5.145-165.196-82.519-166.021-176.149-.413-46.922 18.69-93.083 52.41-126.647C-91.626-336.535-47.24-354.85.016-354.85c.821 0 1.635.005 2.459.017 99.766 1.352 174.927 82.141 174.837 187.925-.677 41.79-20.384 84.413-54.069 116.945C88.877-16.777 47.463 0 0 0m.014-359.85c-48.59 0-94.22 18.829-128.734 53.183-34.667 34.507-54.306 81.976-53.882 130.235.417 47.368 18.676 92.096 51.413 125.943C-99.214-17.43-56.836 2.158-11.86 4.666 41.918 7.67 88.54-9.501 126.716-46.366c34.638-33.452 54.901-77.365 55.596-120.479v-.038c.05-52.992-18.722-101.871-52.857-137.632-33.424-35.016-78.496-54.661-126.913-55.318-.844-.011-1.687-.017-2.528-.017" style="fill:#e30613;fill-opacity:1;fill-rule:nonzero;stroke:none" transform="translate(421.093 475.062)"/><path d="M0 0c.099-105.764-77.167-182.183-170.792-183.454-98.833-1.326-176.734 79.596-175.902 174.237.833 94.529 75.361 167.221 162.196 172.062 50.814 2.838 95.079-13.141 131.68-48.485C-17.771 80.512-.621 38.591 0 0" style="fill:#191917;fill-opacity:1;fill-rule:nonzero;stroke:none" transform="translate(594.295 307.79)"/><path d="M0 0a2.008 2.008 0 0 0 1.94 2.06C3.04 2.1 3.971 1.23 4 .12c.03-1.1-.829-2.02-1.939-2.06H2C.921-1.94.04-1.08 0 0m16.82-2.03A1.996 1.996 0 1 0 17 1.96a1.986 1.986 0 0 0 1.9-2.09 1.992 1.992 0 0 0-1.99-1.91c-.029 0-.059 0-.09.01m-31.67.81A2.003 2.003 0 0 0-13.1 1c1.1.12 2.09-.66 2.22-1.76.12-1.1-.659-2.09-1.76-2.22-.08 0-.16-.01-.229-.01-1 0-1.87.75-1.981 1.77M31.5-3.29a2 2 0 0 0-1.729 2.23 1.989 1.989 0 0 0 2.24 1.73 1.987 1.987 0 0 0 1.729-2.23 2.003 2.003 0 0 0-1.979-1.75c-.09 0-.17 0-.261.02m-61.029-.47a1.997 1.997 0 1 0 3.91.81 2.003 2.003 0 0 0-1.551-2.36c-.14-.03-.269-.04-.409-.04-.931 0-1.761.65-1.95 1.59M46.03-5.79a2.014 2.014 0 0 0-1.54 2.38c.24 1.08 1.3 1.77 2.38 1.53a1.998 1.998 0 0 0 1.53-2.38c-.2-.94-1.03-1.58-1.95-1.58-.139 0-.279.02-.42.05m-89.96-1.8A1.994 1.994 0 0 0-42.6-5.1h.01c1.051.32 2.17-.28 2.49-1.33a2.014 2.014 0 0 0-1.339-2.5c-.191-.05-.39-.08-.581-.08-.86 0-1.65.56-1.91 1.42M60.261-9.56a1.996 1.996 0 0 0-1.311 2.51 1.996 1.996 0 0 0 2.511 1.3 1.998 1.998 0 0 0 1.31-2.5 1.999 1.999 0 0 0-1.911-1.4c-.2 0-.399.03-.599.09m-118.2-3.11a1.992 1.992 0 0 0 1.11 2.6 1.999 1.999 0 0 0 2.6-1.12c.41-1.02-.09-2.18-1.111-2.6-.25-.09-.5-.14-.75-.14-.79 0-1.54.48-1.849 1.26M74.08-14.62c-1.019.43-1.5 1.6-1.069 2.62a1.99 1.99 0 0 0 2.609 1.07 1.996 1.996 0 0 0-.769-3.84c-.26 0-.521.05-.771.15m-145.54-4.34a2 2 0 0 0 .891 2.69c.979.5 2.189.1 2.679-.88.5-.99.101-2.19-.88-2.69-.29-.15-.599-.22-.9-.22a2.02 2.02 0 0 0-1.79 1.1m158.841-1.96c-.971.52-1.351 1.73-.83 2.7a1.99 1.99 0 0 0 2.699.83h.011c.969-.52 1.34-1.73.819-2.7a1.998 1.998 0 0 0-1.769-1.07c-.311 0-.63.08-.93.24M-84.38-26.38c-.58.94-.29 2.17.651 2.75a1.997 1.997 0 1 0 2.099-3.4c-.33-.2-.689-.3-1.05-.3-.67 0-1.32.34-1.7.95m184.441-2.02a2 2 0 0 0-.59 2.77c.599.92 1.84 1.18 2.769.58.92-.6 1.181-1.84.58-2.77a1.986 1.986 0 0 0-1.679-.91c-.37 0-.75.11-1.08.33m-196.68-6.49a1.997 1.997 0 1 0 3.21 2.38c.659-.88.47-2.13-.41-2.79-.361-.27-.781-.4-1.191-.4-.62 0-1.219.28-1.609.81m208.67-2.07c-.88.67-1.03 1.93-.351 2.8a2.005 2.005 0 0 0 2.811.35 2.003 2.003 0 0 0-1.231-3.58c-.429 0-.87.14-1.229.43m-220.141-7.45c-.739.83-.66 2.1.17 2.83.83.73 2.091.65 2.82-.18a1.994 1.994 0 0 0-1.5-3.32c-.549 0-1.099.23-1.49.67m231.391-2.08c-.811.75-.87 2.01-.12 2.83.74.81 2.009.87 2.819.12a1.995 1.995 0 0 0-1.35-3.47c-.479 0-.96.17-1.349.52m-242.021-8.38c-.79.76-.83 2.03-.059 2.83.759.8 2.029.83 2.83.07.79-.77.819-2.03.059-2.83a2.006 2.006 0 0 0-2.83-.07m252.521-1.99c-.75.81-.71 2.08.09 2.83.809.76 2.07.72 2.83-.09.75-.81.71-2.07-.09-2.83a2.006 2.006 0 0 0-2.83.09m-262.21-9.33c-.861.69-1 1.95-.311 2.81.7.86 1.95 1 2.811.3.87-.69 1-1.95.309-2.81a1.976 1.976 0 0 0-1.559-.74c-.441 0-.88.14-1.25.44m271.859-1.82c-.689.87-.55 2.13.321 2.81a2 2 0 0 0 2.809-.31 2 2 0 0 0-.319-2.81 1.97 1.97 0 0 0-1.25-.44c-.58 0-1.16.26-1.561.75m-280.55-10.3c-.92.62-1.16 1.86-.549 2.78.62.91 1.86 1.16 2.78.54a2.006 2.006 0 0 0 .55-2.77 2.003 2.003 0 0 0-2.781-.55m289.26-1.59c-.62.92-.37 2.16.551 2.77.909.62 2.159.37 2.769-.54a2 2 0 0 0-.549-2.78c-.34-.23-.731-.34-1.111-.34-.639 0-1.28.31-1.66.89m-296.88-11.22a1.994 1.994 0 0 0-.78 2.72v-.01c.53.97 1.75 1.32 2.711.79.97-.53 1.319-1.75.789-2.72a2.003 2.003 0 0 0-2.72-.78m304.55-1.36a2.01 2.01 0 0 0 .78 2.72c.97.53 2.191.18 2.72-.79.54-.96.191-2.18-.779-2.71a2.01 2.01 0 0 0-.971-.25c-.699 0-1.39.37-1.75 1.03m-311.04-12.07c-1.01.45-1.46 1.64-1.01 2.64a2.001 2.001 0 0 0 2.641 1.02c1.01-.45 1.46-1.63 1.01-2.64a1.992 1.992 0 0 0-1.83-1.19c-.271 0-.54.06-.811.17m317.58-1.13a2.009 2.009 0 0 0 1.03 2.64c1.01.45 2.191-.01 2.63-1.02a2 2 0 0 0-1.019-2.64c-.261-.11-.54-.17-.811-.17-.769 0-1.5.45-1.83 1.19m-322.88-12.8a2.01 2.01 0 0 0-1.24 2.55 2.01 2.01 0 0 0 2.551 1.24c1.04-.36 1.59-1.5 1.229-2.55a1.992 1.992 0 0 0-2.54-1.24m328.2-.92a1.996 1.996 0 0 0 1.26 2.53c1.05.35 2.181-.21 2.53-1.26a1.994 1.994 0 0 0-1.259-2.53 1.99 1.99 0 0 0-.63-.11c-.841 0-1.62.53-1.901 1.37m-332.28-13.41a2.002 2.002 0 0 0-1.449 2.43 1.992 1.992 0 0 0 2.42 1.45 1.997 1.997 0 0 0 1.46-2.43 2.017 2.017 0 0 0-2.431-1.45m336.28-.75a1.997 1.997 0 1 0 3.89.9 1.997 1.997 0 1 0-3.89-.9m-339.11-13.88c-1.09.18-1.84 1.21-1.659 2.29a1.992 1.992 0 0 0 2.29 1.66c1.09-.18 1.84-1.2 1.659-2.29a2.003 2.003 0 0 0-1.97-1.68c-.11 0-.21.01-.32.02m341.691-.59A2 2 0 0 0 180-145.8a1.988 1.988 0 0 0 2.23-1.73h.01a2.01 2.01 0 0 0-1.74-2.24c-.079-.01-.17-.01-.25-.01-.989 0-1.859.74-1.979 1.75M-165-162.25c-1.1.08-1.93 1.04-1.85 2.14.09 1.1 1.05 1.93 2.151 1.84a1.99 1.99 0 0 0 1.84-2.14 1.997 1.997 0 0 0-1.991-1.85c-.049 0-.099 0-.15.01m344.341-.76v.14c0 .06-.011.12-.011.18a2 2 0 0 0 4 .08v-.19c0-.07.011-.14.011-.21a1.999 1.999 0 1 0-4 0m-346.7-12.159a2.006 2.006 0 0 0 1.979 2.019c1.11.01 2.011-.88 2.021-1.989a1.992 1.992 0 0 0-1.981-2.011h-.019c-1.101 0-1.991.88-2 1.981m348.049-4.72c-1.099.069-1.929 1.029-1.86 2.13a2.018 2.018 0 0 0 2.141 1.859 2.017 2.017 0 0 0 1.859-2.14 2.008 2.008 0 0 0-2-1.86c-.04 0-.09 0-.14.011m-347.259-10.341a2.005 2.005 0 0 0 1.799 2.19 1.998 1.998 0 1 0 .38-3.98c-.07-.01-.13-.01-.2-.01-1.01 0-1.88.771-1.979 1.8m345.549-4.47a1.997 1.997 0 0 0-1.69 2.26 1.985 1.985 0 0 0 2.261 1.7 1.99 1.99 0 0 0 1.689-2.26c-.139-1-.99-1.719-1.969-1.719-.1 0-.191.01-.291.019m-343.45-10.449a2 2 0 1 0 2.33-1.601 1.5 1.5 0 0 0-.37-.04 2 2 0 0 0-1.96 1.641m340.651-4.181a2.003 2.003 0 0 0-1.531 2.38 2.004 2.004 0 0 0 2.39 1.521 2 2 0 0 0 1.521-2.38 2.005 2.005 0 0 0-1.951-1.57c-.149 0-.29.009-.429.049m-337.25-10.5a1.991 1.991 0 0 0 1.389 2.46c1.061.29 2.16-.33 2.46-1.389.3-1.071-.33-2.17-1.389-2.46-.18-.05-.361-.08-.54-.08-.88 0-1.68.58-1.92 1.469m333.33-3.879a2 2 0 0 0-1.34 2.49 2.006 2.006 0 0 0 2.5 1.34 2.009 2.009 0 0 0 1.329-2.5 1.996 1.996 0 0 0-1.909-1.42c-.191 0-.391.03-.58.09m-328.67-10.46a2.004 2.004 0 0 0 1.17 2.58 2.007 2.007 0 0 0 2.58-1.17 2.01 2.01 0 0 0-1.88-2.71c-.811.01-1.57.5-1.87 1.3m323.63-3.571c-1.031.41-1.54 1.571-1.13 2.591a2.001 2.001 0 0 0 2.59 1.14 2.006 2.006 0 0 0-.731-3.87c-.25 0-.489.049-.729.139m-317.741-10.3c-.48 1-.059 2.191.941 2.67 1 .471 2.189.05 2.67-.95.47-1 .05-2.189-.95-2.67a2.033 2.033 0 0 0-.861-.189c-.74 0-1.46.42-1.8 1.139m311.59-3.269a1.994 1.994 0 0 0-.92 2.67c.491 1 1.68 1.41 2.68.92.99-.481 1.4-1.68.91-2.68-.34-.7-1.05-1.12-1.79-1.12-.3 0-.599.069-.88.21m-304.53-10.05a1.998 1.998 0 1 0 3.45 2.02c.55-.951.231-2.18-.719-2.731a1.965 1.965 0 0 0-1.01-.279c-.681 0-1.351.359-1.721.99m297.29-2.98a2.006 2.006 0 0 0-.699 2.75c.569.95 1.8 1.25 2.75.69a2.022 2.022 0 0 0 .689-2.75v.01a2.008 2.008 0 0 0-1.719-.981c-.351 0-.701.09-1.021.281m-289.119-9.691c-.641.91-.431 2.16.47 2.79a1.994 1.994 0 0 0 2.79-.479 2.003 2.003 0 0 0-.481-2.79 2.02 2.02 0 0 0-1.149-.361c-.63 0-1.25.29-1.63.84m280.81-2.679a2 2 0 1 0 2.79.459 1.985 1.985 0 0 0-2.79-.459m-271.6-9.241a2 2 0 0 0 3.059 2.571c.71-.84.6-2.1-.24-2.821a2.015 2.015 0 0 0-1.29-.469c-.569 0-1.13.25-1.529.719m262.279-2.389a1.999 1.999 0 0 0-.22 2.82c.71.84 1.97.939 2.821.22.83-.72.929-1.981.22-2.821-.401-.46-.96-.7-1.531-.7-.45 0-.92.16-1.29.481m-252.08-8.72a2.006 2.006 0 0 0 0 2.83c.78.779 2.051.779 2.83 0 .78-.78.78-2.051 0-2.83a2 2 0 0 0-1.42-.58c-.509 0-1.019.189-1.41.58m241.79-2.07a1.996 1.996 0 0 0 .021 2.83 2 2 0 1 0 1.399-3.43c-.51 0-1.029.199-1.42.6m-230.689-8.13a2.01 2.01 0 0 0-.241 2.82 2 2 0 0 0 2.821.239c.84-.71.949-1.969.239-2.819a1.992 1.992 0 0 0-1.529-.71c-.46 0-.91.159-1.29.47m219.509-1.731a1.99 1.99 0 0 0 .26 2.811 2 2 0 0 0 2.821-.26c.7-.851.58-2.11-.271-2.82a1.957 1.957 0 0 0-1.269-.46c-.581 0-1.151.25-1.541.729m-207.57-7.489c-.91.64-1.12 1.89-.489 2.79a2.005 2.005 0 0 0 2.79.48A2.005 2.005 0 0 0-90.06-316a2.007 2.007 0 0 0-2.78-.479m195.57-1.351c-.629.911-.4 2.151.51 2.781.91.63 2.16.4 2.781-.521a1.995 1.995 0 0 0-1.64-3.13c-.641 0-1.261.301-1.651.87m-182.9-6.809a2.006 2.006 0 0 0-.72 2.729 2 2 0 0 0 3.46-2.009c-.38-.64-1.04-1-1.729-1-.341 0-.691.089-1.011.28m170.17-.95a1.999 1.999 0 1 0 3.48 1.969 2 2 0 0 0-.75-2.729v.01c-.309-.18-.65-.26-.99-.26-.7 0-1.37.359-1.74 1.01m-156.829-6.1a2 2 0 0 0-.95 2.67c.469 1 1.66 1.42 2.66.949 1-.479 1.42-1.67.949-2.67a1.997 1.997 0 0 0-1.809-1.139c-.281 0-.581.059-.85.19m143.47-.5a2.009 2.009 0 0 0 .99 2.649c1.01.46 2.199.01 2.659-.99.45-1.01.011-2.199-1-2.649a1.993 1.993 0 0 0-2.649.99m-129.571-5.36a1.99 1.99 0 0 0-1.179 2.57 1.996 1.996 0 0 0 2.57 1.18 2.013 2.013 0 0 0 1.18-2.571 2.01 2.01 0 0 0-1.88-1.309c-.231 0-.471.04-.691.13m115.68-.031a1.99 1.99 0 0 0 1.23 2.55 1.998 1.998 0 0 0 2.55-1.22 2.002 2.002 0 0 0-1.889-2.66 2 2 0 0 0-1.891 1.33m-101.34-4.609a2.006 2.006 0 0 0-1.399 2.46 2.002 2.002 0 1 0 1.399-2.46m87.03.47a2.012 2.012 0 0 0 1.451 2.439 2 2 0 0 0 2.429-1.449 1.998 1.998 0 0 0-1.439-2.431 2.204 2.204 0 0 0-.5-.059c-.891 0-1.71.599-1.941 1.5m-72.339-3.84c-1.08.2-1.8 1.239-1.601 2.33.2 1.09 1.24 1.8 2.33 1.6a2.002 2.002 0 0 0 1.601-2.33 2 2 0 0 0-1.96-1.63c-.12 0-.25.009-.37.03m57.719.979a2.003 2.003 0 0 0 1.651 2.3 2.008 2.008 0 0 0 2.3-1.659 2 2 0 0 0-1.651-2.29 1.746 1.746 0 0 0-.33-.03c-.96 0-1.81.7-1.97 1.679m-42.79-3.069a1.992 1.992 0 0 0-1.8 2.18 2 2 0 1 0 1.991-2.191c-.061 0-.13 0-.191.011m27.97 1.5c-.079 1.1.75 2.06 1.851 2.14a1.995 1.995 0 0 0 2.139-1.84c.08-1.11-.75-2.07-1.84-2.151h-.16c-1.04 0-1.91.8-1.99 1.851m-12.93-2.31a1.996 1.996 0 0 0-1.969 2.02c.009 1.1.92 1.989 2.019 1.98a2.01 2.01 0 0 0 1.981-2.031 2.007 2.007 0 0 0-2-1.969z" style="fill:#e30613;fill-opacity:1;fill-rule:nonzero;stroke:none" transform="translate(412.956 470.797)"/><path d="M0 0c.095-102.196-74.564-176.037-165.03-177.265-95.5-1.282-170.773 76.911-169.969 168.359.805 91.339 72.818 161.579 156.725 166.258 49.1 2.741 91.872-12.698 127.237-46.85C-17.172 77.796-.601 37.289 0 0" style="fill:#191917;fill-opacity:1;fill-rule:nonzero;stroke:none" transform="translate(588.447 307.447)"/><path d="M0 0c-3.575 0-7.185-.102-10.832-.305-86.317-4.813-154.536-77.19-155.308-164.774-.386-43.894 17.483-87.076 49.025-118.473 31.401-31.256 72.916-48.387 117.124-48.387.765 0 1.532.004 2.299.015 93.325 1.267 163.633 76.828 163.55 175.754-.634 39.115-19.069 79.003-50.579 109.434C83.134-15.694 44.395 0 0 0m.008-334.939c-45.01 0-87.27 17.438-119.24 49.261-32.111 31.963-50.301 75.929-49.908 120.626.387 43.876 17.299 85.305 47.62 116.656C-91.903-17.775-52.653.368-11 2.69c49.815 2.781 93.003-13.122 128.363-47.268 32.083-30.985 50.853-71.646 51.495-111.558v-.022c.046-49.11-17.345-94.403-48.969-127.532-30.955-32.43-72.7-50.625-117.54-51.234-.779-.011-1.565-.015-2.341-.015" style="fill:#e30613;fill-opacity:1;fill-rule:nonzero;stroke:none" transform="translate(421.089 463.607)"/><path d="m0 0 43.588-10.33v-22.553l-45.731-7.198S-3.749-16.616 0 0" style="fill:#e30613;fill-opacity:1;fill-rule:nonzero;stroke:none" transform="translate(254.572 328.165)"/><path d="m0 0-44.973-10.678V-33.99l47.184-7.441S3.868-17.175 0 0" style="fill:#e30613;fill-opacity:1;fill-rule:nonzero;stroke:none" transform="translate(585.394 328.495)"/><path d="m0 0 11.016-.01-.401-2.019H5.598l-.39-1.99 4.978.011-.39-1.999-4.998.009-.409-2.019c-.148-.666.146-1.009.879-1.029l3.919.02-.371-1.95H2.829c-2.019-.006-2.898.65-2.639 1.97L.8-5.998h-1.969l.39 1.99 1.999.009.41 2.03-2.01-.01z" style="fill:#191917;fill-opacity:1;fill-rule:nonzero;stroke:none" transform="translate(255.908 311.397)"/><path d="M0 0h6.987l-.38-1.999H.64L.26-3.938l2.869-.54c1.912-.353 2.802-.853 2.669-1.499l-.61-3.049c-.266-1.293-1.376-1.943-3.329-1.949h-7.037l.38 1.989H1.2l.409 1.939-2.898.55c-1.926.36-2.825.85-2.699 1.469l.61 3.029C-3.099-.666-1.973 0 0 0" style="fill:#191917;fill-opacity:1;fill-rule:nonzero;stroke:none" transform="translate(271.901 311.387)"/><path d="m0 0-.039-.03-1.62-7.977h-3.978L-4.008 0h-2.999l.441 2.059h4.977c.647-.014 1.033.286 1.159.899l.221 1.08h4.038l-.41-2.039h.02l-.02-.01C3.159.663 2.022 0 .011 0Z" style="fill:#191917;fill-opacity:1;fill-rule:nonzero;stroke:none" transform="translate(286.385 308.419)"/><path d="m0 0 .798-4.144c.271-1.38.513-2.766.865-4.129 2.262.044 4.52.106 6.773.188-3.029-2.596-6.107-5.341-8.97-8.167.769-2.663 1.496-5.34 2.426-7.953 4.075 4.035 8.391 7.884 12.759 11.487 2.164-1.009 4.274-1.974 6.435-2.862 2.187-.88 4.355-1.704 6.501-2.474-.765 2.309-1.595 4.598-2.218 6.95-2.427 1.094-4.917 2.253-7.277 3.53 2.749.158 5.49.345 8.223.562l-.817 3.417a46.223 46.223 0 0 0-.752 3.432A390.15 390.15 0 0 0 0 0" style="fill:#e30613;fill-opacity:1;fill-rule:nonzero;stroke:none" transform="translate(267.532 271.402)"/><path d="m0 0 .611-1.767.685-1.74-4.133-.722c-.492 1.18-.876 2.399-1.295 3.606l-4.064-.573c.422-1.224.805-2.462 1.259-3.674a335 335 0 0 0-6.153-.913c-1.343-.194-2.199-.833-2.512-1.929-.294-1.087-.052-2.633.724-4.618.724-1.979 1.62-3.887 2.453-5.82.814-1.945 1.756-3.829 2.688-5.716l3.878 1.07-1.793 3.609c-.584 1.208-1.102 2.449-1.656 3.672-.569 1.401-.167 2.22 1.199 2.47l4.098.852c.667-1.502 1.288-3.025 1.992-4.509l2.165-4.43 3.938 1.176c-1.4 2.856-2.863 5.685-4.09 8.624l3.991.944.936-2.141c.323-.709.683-1.401 1.022-2.102.702-1.39 1.341-2.813 2.09-4.181l3.972 1.273A136.663 136.663 0 0 0 4.011.666Z" style="fill:#e30613;fill-opacity:1;fill-rule:nonzero;stroke:none" transform="translate(291.202 252.595)"/><path d="M0 0c1.36-2.47 2.681-4.963 4.187-7.348A387.554 387.554 0 0 1 16.363-2.92c-2.854-3.489-5.524-7.014-8.186-10.684l1.759-2.628c2.409-3.387 4.88-4.541 7.482-3.339a396.54 396.54 0 0 1 16.51 8.59l-2.303 2.856-2.18 2.949a409.68 409.68 0 0 0-9.393-4.425 202.775 202.775 0 0 0 7.39 11.111c-.685.983-1.282 2.021-1.903 3.045l-1.85 3.077A390.183 390.183 0 0 0 0 0" style="fill:#e30613;fill-opacity:1;fill-rule:nonzero;stroke:none" transform="translate(283.342 224.945)"/><path d="M0 0c2.836-3.314 5.777-6.546 8.919-9.574a381.328 381.328 0 0 0-6.902-4.688c-.946.914-1.803 1.915-2.708 2.867l-3.46-2.244c1.379-1.447 2.725-2.926 4.186-4.294 1.468-1.359 2.827-2.207 4.112-2.476 1.298-.256 2.477.017 3.545.812a400.578 400.578 0 0 1 6.55 5.055c2.142 1.702 1.821 3.688-.779 6.096-1.715 1.681-3.482 3.312-5.099 5.092-.82.877-1.663 1.734-2.468 2.625L3.534 1.992Zm-16.386-8.854c1.723-2.223 3.638-4.286 5.478-6.41A382.782 382.782 0 0 1 3.19-6.677C1.41-4.874-.186-2.902-1.865-1.007a386.671 386.671 0 0 0-14.521-7.847" style="fill:#e30613;fill-opacity:1;fill-rule:nonzero;stroke:none" transform="translate(316.014 209.04)"/><path d="M0 0a396.757 396.757 0 0 0-10.392-10.09c-1.659 1.2-3.287 2.444-4.93 3.664A400.25 400.25 0 0 1-4.55 3.241l2.241-1.668zm-10.385 7.901A383.16 383.16 0 0 0-21.71-1.226c-1.057-.823-1.471-1.78-1.222-2.887.271-1.08 1.224-2.289 2.843-3.618 1.339-1.128 2.74-2.177 4.147-3.218 1.41-1.036 2.782-2.126 4.246-3.087 1.753-1.197 3.32-1.856 4.678-1.963 1.381-.075 2.554.398 3.513 1.392a396.975 396.975 0 0 1 9.77 10.614c1.8 2.04 1.14 4.002-1.905 5.925L.62 4.484c-1.253.842-2.429 1.794-3.649 2.683-1.465 1.059-2.758 1.699-3.97 1.837-1.215.133-2.347-.233-3.386-1.103" style="fill:#e30613;fill-opacity:1;fill-rule:nonzero;stroke:none" transform="translate(343.613 184.078)"/><path d="M0 0c2.391-1.271 4.896-2.302 7.35-3.439A360.79 360.79 0 0 1 15.523 8.6l1.7-.66A394.844 394.844 0 0 0 8.067-6.081c2.565-.995 5.088-2.1 7.705-2.953A392.185 392.185 0 0 1 24.109 5.38a25.937 25.937 0 0 1 1.852-.557 372.818 372.818 0 0 0-9.158-16.238c2.613-.971 5.303-1.703 7.965-2.522A378.445 378.445 0 0 1 32.97 2.672c.579 1.247.559 2.3-.03 3.149-.295.427-.736.794-1.316 1.127-.574.354-1.291.663-2.155.927L26.046 8.91 24.85 6.731c.68 1.451-.275 2.664-2.853 3.622-1.49.483-2.922 1.122-4.381 1.689l1.122 1.779c-1.09.452-2.203.847-3.274 1.341l-3.223 1.461A378.006 378.006 0 0 0 0 0" style="fill:#e30613;fill-opacity:1;fill-rule:nonzero;stroke:none" transform="translate(353.416 161.951)"/><path d="M0 0c1.343-.33 2.677-.7 4.029-.996l4.064-.839a372.867 372.867 0 0 1 5.636 14.236c1.874-.297 3.743-.629 5.62-.902a361.16 361.16 0 0 0-2.633-7.787l-4.05.627L11.14.415l4.205-.651-2.131-5.799c1.327-.202 2.647-.458 3.98-.612l3.999-.467a376.347 376.347 0 0 1 5.256 17.804c.716 2.664-.716 4.072-4.215 4.523-2.376.227-4.724.643-7.076 1.025l.686 1.904-1.779.281-1.763.361-3.526.726A383.887 383.887 0 0 0 0 0" style="fill:#e30613;fill-opacity:1;fill-rule:nonzero;stroke:none" transform="translate(383.185 150.103)"/><path d="M0 0c1.089-.095 2.182-.112 3.275-.13L6.553-.2c2.184-.051 4.37.081 6.554.107l-.95-6.084c-1.929-.016-3.859-.147-5.789-.071l.754 4.018-3.816.096-1.908.048-1.903.129a401.431 401.431 0 0 0-4.286-16.025c2.804-.192 5.606-.418 8.416-.433a394.757 394.757 0 0 1 1.826 8.01l1.859-.062c.839-2.69 1.724-5.324 2.654-7.988l4.244.088c1.414.036 2.825.167 4.238.247a275.67 275.67 0 0 0-3.111 8.018c2.662.167 4.12 1.222 4.349 3.163.41 3.776.765 7.55 1.06 11.366A144.29 144.29 0 0 0 .942 3.958Z" style="fill:#e30613;fill-opacity:1;fill-rule:nonzero;stroke:none" transform="translate(413.264 160.567)"/><path d="M0 0c3.744.724 5.497 2.619 5.296 5.336l.03.028-.035-.009-.302 4.191-3.479-.874-3.516-.723.038-2.227c.015-1.258-.56-2.029-1.733-2.202l-4.504-.719c-1.497-.273-3.02-.367-4.527-.563l-.367-4.246c1.873.24 3.762.369 5.622.696a365.488 365.488 0 0 0-1.062-16.521l2.084.241 2.072.329 4.146.663c.176 5.485.22 11.04.157 16.521l.061.075z" style="fill:#e30613;fill-opacity:1;fill-rule:nonzero;stroke:none" transform="translate(448.71 161.083)"/><path d="M0 0c2.748.643 5.43 1.522 8.133 2.323-.756 7.497-1.778 15.084-2.98 22.51-1.143-.386-2.267-.828-3.424-1.171l-3.466-1.044C-.927 15.078-.354 7.566 0 0" style="fill:#e30613;fill-opacity:1;fill-rule:nonzero;stroke:none" transform="translate(459.926 147.025)"/><path d="M0 0c2.629.866 5.172 1.963 7.746 2.979a375.142 375.142 0 0 1-3.267 14.983c1.719.798 3.486 1.499 5.164 2.39a400.58 400.58 0 0 0 2.172-7.967l-3.723-1.711.918-4.103 3.868 1.774 1.46-5.993 1.836.829 1.8.903 3.597 1.811a382.716 382.716 0 0 1-5.583 17.736c-.438 1.303-1.17 2.057-2.166 2.276-.997.216-2.252-.118-3.845-.886l-3.194-1.608c-1.075-.513-2.172-.98-3.255-1.475l-.49 1.959c-1.1-.479-2.172-1.024-3.293-1.456l-3.342-1.337A376.18 376.18 0 0 0 0 0" style="fill:#e30613;fill-opacity:1;fill-rule:nonzero;stroke:none" transform="translate(471.938 154.131)"/><path d="M0 0c1.224.706 2.48 1.355 3.675 2.111 1.849 2.233 3.721 4.345 5.411 6.648l2.547 3.37c.818 1.146 1.607 2.313 2.397 3.459l-1.894 4c-1.124-1.59-2.217-3.265-3.421-4.824-1.201-1.564-2.406-3.165-3.66-4.734a392.486 392.486 0 0 1-6.418 15.236c-1.97-1.404-4.051-2.635-6.099-3.916A382.32 382.32 0 0 0 0 0" style="fill:#e30613;fill-opacity:1;fill-rule:nonzero;stroke:none" transform="translate(497.078 161.95)"/><path d="m0 0 1.545 1.384 1.49 1.442 2.978 2.888a391.777 391.777 0 0 1-8.775 12.598l1.967 2.06c.655.688 1.257 1.422 1.889 2.13a393.831 393.831 0 0 0 5.051-6.522c-.875-1.05-1.853-2.007-2.774-3.016L5.787 9.53l2.904 3.109a374.682 374.682 0 0 0 3.646-4.978c1.827 1.965 3.562 4.015 5.319 6.042A397.026 397.026 0 0 1 5.711 27.957c-1.829 2.075-3.805 1.671-6.082-1.023-1.578-1.788-3.107-3.622-4.788-5.315l-1.201 1.62-2.479-2.618-2.591-2.507a395.472 395.472 0 0 0 5.85-8.985A394.987 394.987 0 0 0 0 0" style="fill:#e30613;fill-opacity:1;fill-rule:nonzero;stroke:none" transform="translate(523.096 184.723)"/><path d="M0 0c1.268 1.778 2.612 3.502 3.78 5.35 1.212 1.816 2.432 3.629 3.524 5.52l4.567-4.164C10.907 5.032 9.77 3.47 8.721 1.85L5.776 4.708C4.404 2.565 2.853.548 1.358-1.51c3.766-4.081 7.389-8.2 10.965-12.429l1.313 1.649 1.248 1.699 2.483 3.407a340.99 340.99 0 0 1-5.675 5.96L12.739.313c2.696-.78 5.416-1.522 8.161-2.225.798 1.171 1.492 2.408 2.241 3.61.722 1.218 1.502 2.404 2.173 3.652a233.546 233.546 0 0 0-8.432 1.847c.71 1.128 1.02 2.161.961 3.07-.05.902-.449 1.668-1.197 2.301a393.28 393.28 0 0 1-8.889 7.154C4.698 13.874 1.134 8.293-2.791 2.986Z" style="fill:#e30613;fill-opacity:1;fill-rule:nonzero;stroke:none" transform="translate(531.01 215.57)"/><path d="M0 0c1.384 3.552.887 6.016-1.535 7.361l-.007.042-.012-.035-3.67 2.063-.571-1.702-.644-1.673-1.293-3.348 1.883-1.198c1.067-.686 1.336-1.567.836-2.642-.624-1.385-1.19-2.798-1.858-4.163l-2.012-4.093 3.341-2.649 2.508 5.08a388.613 388.613 0 0 0 13.181-9.996l1.847 3.77 1.688 3.844A369.415 369.415 0 0 1 .022-.111l-.029.092z" style="fill:#e30613;fill-opacity:1;fill-rule:nonzero;stroke:none" transform="translate(550.156 245.388)"/><path d="M0 0a384.766 384.766 0 0 0 5.472-3.001c1.089-.621 2.692.699 4.412 4.188.896 1.74 1.794 3.494 2.575 5.294l3.622-1.761c-.44-2.009-1.095-3.961-1.639-5.943-.533-1.985-1.227-3.922-1.878-5.87l3.561-2.066c.782 2.348 1.624 4.68 2.268 7.071l1.027 3.569c.345 1.189.597 2.403.898 3.603 1.001 4.01.086 6.59-2.375 7.62a387.715 387.715 0 0 1-5.839 2.369c-1.261.501-2.521-1.046-4.017-4.49-.794-1.713-1.56-3.419-2.366-5.1L2.098 7.181l1.3 5.402 1.061 5.455-3.861 1.375-1.217-6.194c-.512-2.041-.952-4.101-1.509-6.129C-3.118 3.678-2.368 1.317 0 0" style="fill:#e30613;fill-opacity:1;fill-rule:nonzero;stroke:none" transform="translate(551.78 255.649)"/><path d="M0 0c.661 1.971 1.254 3.964 1.959 5.919L-3.92 9.13c3.881.17 7.673.253 11.513.197.769 1.775 1.44 3.593 2.278 5.339-5.507.54-10.933.813-16.533.931a192.438 192.438 0 0 0-3.369 5.881c-1.094 2.001-2.099 4.018-3.119 6.096l-1.544-3.33-1.417-3.387 1.839-3.526a176.681 176.681 0 0 1 1.964-3.467 452.196 452.196 0 0 0-7.094 4.252c-.82-2.281-1.741-4.527-2.451-6.846A449.358 449.358 0 0 1 0 0" style="fill:#e30613;fill-opacity:1;fill-rule:nonzero;stroke:none" transform="translate(291.485 336.885)"/><path d="m0 0 1.316 2.837L2.74 5.621a444.477 444.477 0 0 0-17.929 13.755c-1.192-2.116-2.247-4.308-3.372-6.461A454.818 454.818 0 0 1 0 0" style="fill:#e30613;fill-opacity:1;fill-rule:nonzero;stroke:none" transform="translate(297.941 353.97)"/><path d="M0 0c1.927 2.933 2.091 5.266.182 7.257l.005.041-.021-.029-2.886 3.059-2.197-3.001c-.72-1.009-1.396-2.05-2.094-3.074l1.593-1.554c.905-.883 1.023-1.795.354-2.742-.813-1.249-1.578-2.529-2.367-3.792l-1.17-1.905-1.101-1.946 3.249-2.741C-5.6-8.901-4.741-7.379-3.8-5.906a434.614 434.614 0 0 1 12.541-10.64c1.052 1.781 2.158 3.532 3.254 5.288A448.533 448.533 0 0 0 .001-.106l-.011.091z" style="fill:#e30613;fill-opacity:1;fill-rule:nonzero;stroke:none" transform="translate(295.39 382.397)"/><path d="M0 0c.681.973 1.434 1.89 2.162 2.827L4.955-.274a54.851 54.851 0 0 1-2.072-2.754l2.85-2.936c.661.881 1.279 1.794 1.98 2.643l4.223-4.502c1.874-1.937 3.793-1.658 5.738.809.944 1.241 2.006 2.384 3.009 3.576.997 1.199 2.061 2.337 3.129 3.473l-2.488 3.13L19.193.847l-2.044-2.393c-.797-.865-1.64-.777-2.52.273l-2.687 3.157c.919 1.053 1.817 2.123 2.753 3.161l2.863 3.061-2.478 3.29c-1.945-2.099-3.911-4.176-5.737-6.379L6.729 8.166c1.896 2.275 3.967 4.394 5.982 6.561l-2.424 3.365A166.637 166.637 0 0 1-2.801 2.968Z" style="fill:#e30613;fill-opacity:1;fill-rule:nonzero;stroke:none" transform="translate(298.144 389.768)"/><path d="m0 0 3.213-5.332c.663-1.085 2.478-.847 5.383.664l4.472 2.098 1.87-3.532c-1.252-1.006-2.552-1.955-3.769-3.004l-3.667-3.13 2.243-3.42c1.349 1.239 2.78 2.384 4.163 3.584 1.406 1.173 2.874 2.27 4.305 3.412 2.432 1.822 3.086 3.888 1.929 6.299L17.43 3.292c-.568 1.219-2.361 1.182-5.44-.165-1.56-.644-3.052-1.398-4.581-2.123L5.501 4.507l2.08 1.63 2.136 1.552c1.431 1.027 2.839 2.086 4.322 3.038l-1.698 3.741c-1.78-1.148-3.49-2.395-5.201-3.639-1.734-1.216-3.386-2.538-5.05-3.845C.667 5.892-.197 4.722-.531 3.54-.873 2.363-.692 1.185 0 0" style="fill:#e30613;fill-opacity:1;fill-rule:nonzero;stroke:none" transform="translate(321.01 414.078)"/><path d="M0 0a463.863 463.863 0 0 1 5.868-13.19c1.152-2.464 2.994-2.794 5.579-1.144 1.451.871 2.881 1.78 4.346 2.627l4.441 2.462-1.285 3.734c-1.324-.655-2.592-1.416-3.891-2.117-1.304-.695-2.569-1.458-3.827-2.233a457.491 457.491 0 0 0-5.269 13.48c2.877 1.625 5.75 3.26 8.722 4.709l-1.172 4.041A156.964 156.964 0 0 1 2.957 6.631C-.099 4.78-1.096 2.563 0 0" style="fill:#e30613;fill-opacity:1;fill-rule:nonzero;stroke:none" transform="translate(337.555 426.544)"/><path d="m0 0-1.449-.725L-.25-4.708l1.556.787 1.801-6.041c1.908.984 3.897 1.796 5.839 2.705L7.379-1.155 11.935.732a466.41 466.41 0 0 1 2.287-10.017c1.889.82 3.851 1.452 5.778 2.176a437.353 437.353 0 0 0-3.503 22.161c-2.306-.688-4.562-1.517-6.824-2.336.476-2.683.975-5.356 1.497-8.021-1.606-.623-3.193-1.297-4.791-1.944a451.754 451.754 0 0 0-2.225 10.022c-1.146-.48-2.308-.922-3.44-1.437l-3.39-1.547A451.939 451.939 0 0 1 0 0" style="fill:#e30613;fill-opacity:1;fill-rule:nonzero;stroke:none" transform="translate(356.35 432.49)"/><path d="M0 0c.176-4.813.428-9.61.755-14.39-1.561-.353-3.122-.707-4.658-1.156A445.75 445.75 0 0 0-5.175-1.194zm-12.037-3.022c.58-4.807 1.235-9.592 1.963-14.353.428-2.656 2.106-3.427 5.082-2.61l3.744 1.027 3.782.88c1.524.374 2.663.927 3.419 1.75.753.828 1.122 1.93 1.096 3.3A453.689 453.689 0 0 0 6.932 1.36c.038 2.729-1.719 3.778-5.301 3.098-1.496-.259-2.975-.599-4.452-.946-1.476-.354-2.965-.653-4.428-1.056-3.513-.969-5.131-2.765-4.788-5.478" style="fill:#e30613;fill-opacity:1;fill-rule:nonzero;stroke:none" transform="translate(388.784 447.697)"/><path d="M0 0a455.15 455.15 0 0 1-1.412-14.307c-1.6-.085-3.187-.31-4.781-.457.225 4.78.526 9.567.902 14.362C-3.533-.189-1.765-.117 0 0m-12.346-1.176c-.152-4.83-.227-9.65-.227-14.457.019-2.659 1.576-3.775 4.633-3.34 1.284.161 2.575.272 3.863.413l1.932.203 1.94.123c1.568.097 2.776.512 3.646 1.244.87.703 1.4 1.72 1.579 3.078A467.896 467.896 0 0 0 7.05.305c.444 2.677-1.136 4.01-4.774 3.898-3.025-.201-6.056-.319-9.068-.683-3.626-.339-5.479-1.997-5.554-4.696" style="fill:#e30613;fill-opacity:1;fill-rule:nonzero;stroke:none" transform="translate(411.636 450.776)"/><path d="M0 0c1.046.032 2.093.046 3.139.007C5.172.843 7.25 1.773 9.356 2.5c2.11.766 4.262 1.567 6.44 2.207l1.178 4.239c-3.252-.859-6.446-1.968-9.552-3.025a453.408 453.408 0 0 0 3.541 16.041c-2.42.189-4.845.206-7.27.258-.707-3.69-1.369-7.38-1.984-11.072A462.013 462.013 0 0 1 0 0" style="fill:#e30613;fill-opacity:1;fill-rule:nonzero;stroke:none" transform="translate(419.219 432.86)"/><path d="M0 0a450.818 450.818 0 0 1-6.087-13.047c-.772.206-1.54.435-2.317.623l-2.34.538A456.392 456.392 0 0 0-5.128 1.383C-3.411.954-1.709.46 0 0m-12.045 2.983A459.435 459.435 0 0 1-17.052-10.6c-.865-2.531.245-4.047 3.265-4.682 2.522-.583 5.053-1.134 7.537-1.862 3.031-.785 5.103-.124 6.357 2.34A459.078 459.078 0 0 0 6.762-2.049c1.314 2.388.254 4.134-3.223 5.237-1.439.484-2.92.828-4.378 1.247-1.465.398-2.924.819-4.408 1.138-3.548.834-5.828-.038-6.798-2.59" style="fill:#e30613;fill-opacity:1;fill-rule:nonzero;stroke:none" transform="translate(463.219 445.164)"/><path d="M0 0c1.111-.413 2.236-.792 3.337-1.234L1.126-4.723-2-3.588l-2.012-3.627 3.105-1.17-2.035-3.532c-.631-1.094-1.425-1.453-2.392-1.073l-1.489.563-1.951-3.691 4.376-1.653c2.917-1.131 5.056-.6 6.51 1.727l3.302 5.192c2.53-1.171 5.095-2.27 7.562-3.572l2.468 3.363c-1.292.642-2.557 1.337-3.871 1.932L7.641-7.323l2.25 3.364 4.042-1.847L17.9-7.805l2.515 3.249C14.484-1.415 8.304 1.242 2.017 3.582Z" style="fill:#e30613;fill-opacity:1;fill-rule:nonzero;stroke:none" transform="translate(473.316 441.86)"/><path d="M0 0c.885-.547 1.784-1.069 2.658-1.634l2.598-1.728 4.588 4.911c-.773-3.757-1.707-7.55-2.692-11.221 1.594-1.103 3.084-2.344 4.618-3.528 1.832 5.126 3.565 10.469 5.012 15.78 2.168.67 4.323 1.239 6.524 1.789 2.193.539 4.461 1.092 6.698 1.531-1.885 1.556-3.828 3.043-5.759 4.542a200.586 200.586 0 0 1-7.723-1.946 458.382 458.382 0 0 0 5.871 5.789c-1.941 1.451-3.996 2.739-6.003 4.092A443.903 443.903 0 0 1 0 0" style="fill:#e30613;fill-opacity:1;fill-rule:nonzero;stroke:none" transform="translate(491.11 413.244)"/><path d="m0 0 2.727-2.287-3.22-2.665c-.885.733-1.75 1.489-2.651 2.202l-3.057-2.73c.879-.664 1.701-1.397 2.545-2.106l-4.678-4.033c-2.019-1.796-1.815-3.72.591-5.74l3.443-3.162c1.144-1.059 2.22-2.187 3.335-3.275l3.236 2.358-2.249 2.204-1.124 1.102-1.166 1.056c-.838.826-.718 1.66.369 2.497l3.271 2.557c2.086-1.862 4.012-3.891 5.993-5.859l3.376 2.324c-.967 1.054-2.019 2.025-3.025 3.041-1.013 1.011-2.03 2.015-3.101 2.965l3.26 2.484c1.108-.983 2.122-2.064 3.183-3.096 1.05-1.042 2.11-2.076 3.103-3.175l3.468 2.285C13.056-6.201 8.231-1.572 3.07 2.659Z" style="fill:#e30613;fill-opacity:1;fill-rule:nonzero;stroke:none" transform="translate(518.168 416.459)"/><path d="m0 0 2.141-2.282c.705-.769 1.371-1.572 2.059-2.356a450.525 450.525 0 0 0 11.065 6.631A267.431 267.431 0 0 0 7.712-8.862l1.458-1.831c1.765-2.503 3.915-3.144 6.474-1.971a458.212 458.212 0 0 0 16.771 7.801c-.698 1.012-1.375 2.039-2.095 3.036l-2.196 2.964a480.319 480.319 0 0 1-9.171-4.74 234.678 234.678 0 0 1 6.693 11.406c-1.528 1.953-3.205 3.782-4.806 5.674A454.144 454.144 0 0 1 0 0" style="fill:#e30613;fill-opacity:1;fill-rule:nonzero;stroke:none" transform="translate(519.34 390.382)"/><path d="m0 0 3.268-5.296c1.017-1.808 2.056-3.604 3.05-5.425a404.22 404.22 0 0 1-7.88-2.631l-1.616 2.939-3.805-1.508 2.376-4.2c1.541-2.813 3.578-3.835 6.128-3.09 2.634.795 5.257 1.558 7.903 2.303 2.614.718 3.205 2.7 1.527 5.869-2.18 4.308-4.645 8.462-7.212 12.547zm-16.94-7.584c.581-.862 1.186-1.709 1.752-2.582l1.657-2.643A440.909 440.909 0 0 0 1.723-6.765C.533-4.75-.715-2.769-1.961-.789A463.974 463.974 0 0 1-16.94-7.584" style="fill:#e30613;fill-opacity:1;fill-rule:nonzero;stroke:none" transform="translate(549.973 380.835)"/><path d="M0 0a454.19 454.19 0 0 1-14.16-2.631l-.834 2.251-.926 2.214A454.96 454.96 0 0 0-1.854 4.977zm-4.574 11.535a457.032 457.032 0 0 1-13.965-3.82c-2.566-.768-3.145-2.548-1.917-5.38l1.496-3.583c.499-1.194.911-2.422 1.373-3.631.274-.735.597-1.363.972-1.885.354-.528.755-.954 1.215-1.273.918-.639 2.056-.86 3.412-.656a459.91 459.91 0 0 0 14.252 2c2.709.318 3.509 2.195 2.379 5.662C4.195.42 3.639 1.833 3.117 3.259c-.54 1.418-1.024 2.858-1.633 4.249-1.394 3.367-3.417 4.721-6.058 4.027" style="fill:#e30613;fill-opacity:1;fill-rule:nonzero;stroke:none" transform="translate(565.552 349.04)"/><path d="M0 0c0-68.578-55.594-124.171-124.171-124.171-68.578 0-124.171 55.593-124.171 124.171s55.593 124.171 124.171 124.171C-55.594 124.171 0 68.578 0 0" style="fill:#e30613;fill-opacity:1;fill-rule:nonzero;stroke:none" transform="translate(544.116 297.638)"/><path d="M0 0c0-66.149-53.625-119.774-119.775-119.774-66.149 0-119.774 53.625-119.774 119.774s53.625 119.774 119.774 119.774C-53.625 119.774 0 66.149 0 0" style="fill:#191917;fill-opacity:1;fill-rule:nonzero;stroke:none" transform="translate(539.72 297.638)"/><path d="M0 0c.093 0 .259-.011.321-.083.025-.028.099-.149.037-.521-.153-.922-.393-1.856-.626-2.759l-.144-.564c-.009-.01-.022-.019-.031-.026-1.21-.136-2.406-.254-3.669-.379l-.568-.057-.183 3.642c.381.06.757.122 1.131.184 1.194.195 2.323.378 3.471.542C-.165-.007-.077 0 0 0m.681 2.34c-.718 0-1.442-.157-2.211-.482-1.128-.474-2.127-.705-3.054-.705-.656 0-1.293.118-1.895.353-.208.08-.39.12-.557.12-.272 0-.499-.108-.641-.306-.192-.266-.203-.653-.033-1.15l.076-.219c.149-.43.289-.835.364-1.247.134-.742.255-1.501.373-2.235.116-.727.236-1.477.369-2.214.108-.604.306-1.183.485-1.67.091-.248.316-.364.481-.45.041-.021.083-.041.118-.066l.39-.262.22.415c.021.038.045.075.07.113.086.132.194.298.214.511.027.272.023.537.019.816l.06.002c.319.013.62.024.923.049.444.036.89.069 1.336.102 1.195.088 2.433.18 3.646.341.516.069 1.082.18 1.243.626.136.378-.1.757-.413 1.119l1.445 2.804v2.679l-.209.122c-.964.56-1.886.834-2.819.834" style="fill:#e30613;fill-opacity:1;fill-rule:nonzero;stroke:none" transform="translate(485.483 232.952)"/><path d="M0 0c-.025-.291-.15-.446-.231-.446-.04 0-.114.033-.2.127-.555.604-1.202.886-2.035.886-.378 0-.752-.056-1.113-.111a11.855 11.855 0 0 0-.625-.083A97.04 97.04 0 0 1-7.015.051l-.773-.095v3.123c.296.012.589.024.881.034 1.036.041 2.014.079 3.012.145.75.05 1.457.161 2.1.331.411.108.774.582.855.957a.57.57 0 0 1-.102.443c-.152.232-.491.507-.795.568-.338.066-.67.1-.984.1-.21 0-.413-.015-.605-.046-1.134-.18-2.243-.388-3.419-.608l-.863-.161v2.659l.803.091c.92.103 1.835.207 2.749.313.664.077 1.327.158 1.991.24l.924.112c.112.014.214.02.303.02.391 0 .593-.093.684-.626.218-1.288.353-2.688.413-4.281C.2 2.28.102 1.155.006.066Zm.352 10.803a1.079 1.079 0 0 1-.295.039c-.221 0-.437-.057-.628-.108l-.148-.038a40.178 40.178 0 0 1-1.417-.376c-.959-.265-1.951-.542-2.927-.648a15.03 15.03 0 0 0-1.632-.078c-.574 0-1.162.021-1.732.043-.458.017-.932.035-1.4.041l-.074.001c-.376 0-.753-.041-.96-.334-.221-.315-.103-.715.026-1.067l.03-.084c.067-.177.129-.345.134-.485l.007-.232c.093-2.905.188-5.909.246-8.863.016-.794.132-1.817.901-2.683l.116-.13.81-.053.725 2.304 1.091.037c1.753.061 3.566.124 5.373.161a.628.628 0 0 0 .243-.207c.551-.904.763-1.611.706-2.363-.029-.39.251-.9.6-1.092a.627.627 0 0 1 .306-.074c.314 0 .725.195.914.434l.034.042c.34.427.726.91.864 1.474.236.965.516 2.234.591 3.502.081 1.344.099 2.709.117 4.028.008.702.018 1.403.036 2.105.015.578.086.871.462 1.079.262.146.354.496.386.692.049.305.002.535-.137.686C2.612 9.75 1.542 10.464.352 10.803" style="fill:#e30613;fill-opacity:1;fill-rule:nonzero;stroke:none" transform="translate(480.144 213.482)"/><path d="m0 0 .166-.229c1.032-1.422 1.98-2.547 3.243-3.408.23-.157.479-.24.719-.24.485 0 .892.335 1.034.853.11.399.198 1.202-.172 1.67C3.991-.094 2.639.589 1.065.619.886.619.733.557.587.496.524.471.454.442.373.414L.264.378c.431.516 1.016.779 1.902.904 1.142.16 2.262.486 3.345.8l.125.036c.311.09.487.37.629.596.047.077.093.149.135.202l.267.333-.338.26a2.927 2.927 0 0 0-.183.159c-.184.17-.394.362-.681.432a1.838 1.838 0 0 1-.432.048c-.275 0-.545-.049-.773-.098a173.889 173.889 0 0 1-3.251-.732l.023.121c.103.544.2 1.058.283 1.596.087.57.145.947.26 1.065.117.118.502.188 1.085.294l.041.007c.703.127 1.397.279 2.131.439.338.074.683.149 1.041.224l.644.136-.393.526c-.651.869-1.391 1.291-2.259 1.291-.156 0-.318-.014-.482-.043-.668-.116-1.324-.299-1.96-.476-.233-.065-.466-.13-.7-.192-.677-.179-1.353-.362-2.078-.558.045.065.09.131.136.195.567.814 1.103 1.582 1.611 2.363.2.307.453.775.336 1.273-.118.502-.561.816-.883 1.007a6.101 6.101 0 0 1-1.438.617 1.581 1.581 0 0 1-.424.068.69.69 0 0 1-.545-.229c-.213-.246-.196-.597-.149-.907.073-.494.065-.909-.026-1.232-.159-.562-.418-1.093-.741-1.73a20.474 20.474 0 0 0-3.417-4.841c-.242-.255-.411-.549-.575-.833-.068-.117-.135-.235-.208-.348l-.196-.321.717-.58.246.125c.072.037.147.07.223.103.195.085.417.183.608.344.48.408.958.831 1.421 1.24.405.359.81.718 1.221 1.07.084.072.338.29.547.337a16.6 16.6 0 0 0 1.343.224l.153.022a94.43 94.43 0 0 0-.54-3.058.565.565 0 0 0-.171-.087 523.071 523.071 0 0 0-6.972-1.368c-.46-.086-.928-.139-1.424-.193-.232-.027-.469-.053-.709-.083l-.6-.076.28-.534c.584-1.115 1.279-1.613 2.255-1.613.172 0 .352.016.548.047.66.105 1.35.241 2.112.413 1.05.238 2.079.482 3.17.739l.588.139C-4.081-2.885-6.024-5.35-8.634-7.287c-.304-.225-.574-.482-.836-.73-.116-.11-.233-.22-.351-.327l-.275-.247.569-.814.296.092c.086.026.175.05.264.074.219.057.446.118.668.226C-4.355-7.099-1.673-4.302-.327-.701-.228-.435-.12-.204 0 0" style="fill:#e30613;fill-opacity:1;fill-rule:nonzero;stroke:none" transform="translate(470.968 228.037)"/><path d="M0 0c.517.081 1.033.163 1.55.243l.221.037c.208.035.405.07.592.075h.027c.133 0 .194-.032.208-.048.014-.018.034-.089.003-.229-.41-1.807-.826-3.613-1.241-5.419l-.079-.344c-.012-.056-.027-.112-.042-.169a3.547 3.547 0 0 1-1.27.221c-.595 0-1.176-.122-1.739-.24-.34-.071-.668-.14-.992-.183v1.925l2.212.325c.153.023.306.042.46.063.387.05.787.102 1.182.193.324.074.716.387.782.734.066.347-.197.837-.533.987-.468.209-.953.371-1.424.527l-.328.11a.685.685 0 0 1-.22.034c-.112 0-.322-.025-.465-.188-.287-.328-.695-.41-1.168-.505-.163-.033-.331-.066-.5-.112a2.999 2.999 0 0 1-.411 1.477c.399.056.771.11 1.142.168C-1.355-.214-.678-.106 0 0m.924-9.282c-.967-.223-1.967-.453-2.951-.668-.184-.04-.369-.072-.569-.106.045.39-.088.772-.397 1.157-.16.197-.305.407-.454.628l.317.047c.641.097 1.303.197 1.946.224.176.008.353.015.53.015.722 0 1.212-.112 1.636-.37.272-.166.556-.298.831-.426l.093-.043a1.642 1.642 0 0 1-.562-.361 2.624 2.624 0 0 0-.111-.027Zm-11.027 4.667.304-.135c.219-.097.425-.187.626-.289.315-.16.641-.237.999-.237.445 0 .856.12 1.253.236.192.056.372.108.551.146.158.034.313.077.465.122v-1.87l-3.721-.68-.578 2.753zm3.928 3.563c.209-.438.3-.934.284-1.552-.566-.127-1.132-.25-1.698-.374-.658-.142-1.315-.285-1.971-.433l-.066-.013c-.397-.066-.633-.25-.704-.548l-.514 2.455.098.012c.411.049.82.097 1.227.151l.625.081c.785.101 1.597.206 2.394.335.065.01.119.016.162.016.077 0 .101 0 .163-.13M6.322 1.782c-.449.247-1.009.556-1.579.791l-.131.054c-.397.167-.808.339-1.269.339a1.75 1.75 0 0 1-1.082-.382c-.057-.043-.233-.068-.362-.087a260.08 260.08 0 0 0-4.054-.645c-.104.475-.249.985-.545 1.439l1.041.48c1.301.601 2.645 1.223 3.977 1.812.423.187.86.333 1.323.488.264.088.529.177.79.274.511.188.653.514.692.692.038.178.045.53-.351.92-.097.095-.217.213-.381.292l-.19.091a96.91 96.91 0 0 1-2.712 1.266.655.655 0 0 1-.28.057c-.16 0-.341-.047-.569-.147a2.775 2.775 0 0 1-.366-.207 1.297 1.297 0 0 0-.308-.166c-1.04-.292-2.22-.623-3.373-.878-1.311-.29-2.7-.559-4.128-.799a59.846 59.846 0 0 0-3.487-.468c-.452-.049-.92-.072-1.373-.094a35.913 35.913 0 0 1-1.059-.063l-.07-.005c-.218-.011-.797-.04-.909-.716l-.047-.286.252-.146c.136-.078.27-.161.404-.244.326-.203.663-.413 1.041-.559l.066-.026c.459-.178.979-.38 1.495-.38.092 0 .182.006.267.02 1.022.154 2.042.388 3.027.614.429.099.858.197 1.287.289 1.787.383 3.388.724 4.87 1.035-.573-.507-1.15-1.01-1.737-1.521l-.08-.069c-.384-.336-.638-.543-1.012-.543-.047 0-.096.004-.147.01-.931.121-1.878.169-2.795.216l-.389.02-.033.001c-.221 0-.396-.114-.524-.196a1.39 1.39 0 0 0-.102-.062l-.434-.217.277-.396c.024-.034.045-.073.067-.111.076-.13.169-.292.34-.408.264-.179.536-.348.798-.512.304-.188.618-.383.911-.588.321-.226.646-.477.918-.794a40.82 40.82 0 0 0-.801-.118c-.737-.097-1.611-.21-2.49-.309l-.159-.019c-.633-.071-1.289-.145-1.929-.18a11.087 11.087 0 0 1-.363-.029c-.185-.016-.36-.032-.531-.032-.284 0-.5.044-.702.144-.356.175-.74.23-1.111.283l-.213.031c-.063.01-.121.015-.175.015-.328 0-.492-.169-.56-.271-.09-.133-.167-.366-.022-.72a21.1 21.1 0 0 1 .177-.41c.149-.336.289-.654.37-.977.535-2.134.99-4.048 1.389-5.851.174-.779.501-1.761 1.502-2.43.311-.208.58-.305.846-.305.464 0 .798.305 1.008.533a.257.257 0 0 0 .114.067c1.072.217 2.049.404 2.983.572l.03-.116c.082-.319.161-.619.118-.854-.174-.941-.44-1.259-1.053-1.259l-.12.002c-.134 0-.255-.022-.362-.043a1.905 1.905 0 0 0-.109-.018l-1.143-.174c-1.615-.246-3.286-.5-4.928-.76-.197-.031-.352-.13-.489-.217-.051-.032-.105-.066-.163-.097l-.615-.329.579-.388c.114-.076.216-.152.311-.222.215-.157.419-.307.661-.406.094-.039.193-.092.298-.149.275-.148.588-.316.982-.316.093 0 .187.01.279.028.224.047.446.096.669.144.308.066.615.134.924.195.845.17 1.691.336 2.536.502l.214.042a18.623 18.623 0 0 0-.312-.491c-.802-1.222-1.758-2.623-2.948-3.804-.905-.896-1.881-1.846-2.893-2.717-.452-.389-.939-.727-1.455-1.086-.269-.187-.539-.374-.802-.569-.14-.102-.204-.242-.247-.335-.009-.019-.018-.039-.028-.055l-.251-.444.485-.167a.473.473 0 0 0 .053-.023c.084-.038.199-.092.338-.092.07 0 .137.014.199.04.165.069.332.136.499.202.523.208 1.063.424 1.562.722 1.517.907 2.729 1.688 3.816 2.46 1.22.865 2.366 1.975 3.606 3.497.761.931 1.446 1.935 2.108 2.907l.331.484c.134.196.25.272.475.311 1.494.261 3.059.548 4.788.878a.404.404 0 0 0 .078.007c.102 0 .195-.039.24-.103.054-.075.031-.183.004-.261-.131-.366-.259-.732-.387-1.097a57.736 57.736 0 0 0-1.035-2.814c-.382-.937-.869-1.862-1.339-2.755l-.04-.076c-.088-.167-.275-.267-.502-.267a.762.762 0 0 0-.19.025c-.325.085-.647.175-.97.264a52.3 52.3 0 0 1-1.457.388c-.08.02-.165.03-.258.03a2.27 2.27 0 0 1-.314-.027c-.055-.007-.11-.015-.164-.018l-.722-.042.392-.605c.032-.048.062-.099.092-.15.079-.136.17-.289.299-.426.175-.184.358-.361.535-.532.235-.228.457-.442.661-.673a9.146 9.146 0 0 0 1.599-2.572c.074-.177.3-.713.808-.713.34 0 .608.252.803.472l.163.181c.468.523.952 1.065 1.329 1.679.559.91 1.062 1.878 1.494 2.876.466 1.078.908 2.185 1.335 3.256.258.65.518 1.301.784 1.949.059.143.113.288.169.434.225.601.438 1.17.973 1.612l.34.281-.299.324c-.072.078-.138.159-.203.238-.167.203-.339.412-.577.567-.501.325-1.034.599-1.551.862l-.133.07a3.672 3.672 0 0 1-.614.256c.065.036.127.078.189.128.68.554 1 1.277 1.243 1.976l.557 1.61c.468 1.357.953 2.76 1.45 4.13.115.317.324.642.588.916.281.294.513.76.019 1.313a2.458 2.458 0 0 1-.63.525" style="fill:#e30613;fill-opacity:1;fill-rule:nonzero;stroke:none" transform="translate(424.389 232.247)"/><path d="M0 0c-.809 1.135-2.009 1.741-3.667 1.854a10.78 10.78 0 0 1-.749.026c-1.379 0-2.737-.245-3.936-.461-.666-.12-1.333-.236-2.014-.355l-.439-.076c.038 2.266.675 4.491 2.035 7.139l.182.352-.345.2c-.161.093-.322.18-.482.265-.32.172-.622.334-.875.534-.834.658-1.707.978-2.669.978-.181 0-.367-.012-.555-.035a1.203 1.203 0 0 1-.128.008.68.68 0 0 1-.514-.205c-.209-.223-.187-.532-.179-.633.024-.338.039-.685.054-1.02.02-.45.041-.916.084-1.377a21.547 21.547 0 0 0-.554-7.256c-.021-.084-.039-.113-.038-.114a.286.286 0 0 0-.087-.016 317.527 317.527 0 0 1-3.963-.363l-.656-.064c-1.214-.12-2.47-.243-3.703-.409a4.859 4.859 0 0 1-2.035-.765l-.358-.234.241-.352c.689-1.003 1.527-1.532 2.561-1.616a7.62 7.62 0 0 1 .639-.027c.384 0 .724.033 1.04.101.731.157 1.461.353 2.166.542.395.106.79.211 1.186.311.438.11.958.223 1.49.223.278 0 .539-.031.791-.093a27.025 27.025 0 0 0-4.674-9.742c-2.011-2.653-4.603-5.112-7.923-7.518-.166-.12-.331-.241-.496-.363l-.512-.374.307-.755.338.06c.138.025.278.044.418.064.327.045.666.092.998.204 3.248 1.086 5.989 3.027 8.38 5.934 2.222 2.701 3.805 5.747 5.059 8.371.447.934.886 1.872 1.325 2.811.411.88.823 1.761 1.239 2.634a.308.308 0 0 0 .048.052c.163-.013.331-.02.501-.02.849 0 1.67.17 2.463.334l.325.066c.522.106 1.055.147 1.618.189.228.017.456.034.683.056l.051.002.032-.001a.618.618 0 0 0 .044-.166c.46-2.755.426-5.66-.102-8.63-.495-2.78-1.304-5.066-2.474-6.99-.417-.685-.528-.753-.698-.753-.174 0-.452.076-.843.198l-.228.072c-.425.134-.864.272-1.318.364a1.95 1.95 0 0 1-.386.041c-.57 0-1.014-.28-1.36-.856l-.27-.45.502-.164c.823-.265 1.141-.973 1.51-1.794l.038-.084c.075-.167.159-.33.242-.493.069-.134.139-.268.202-.404.163-.353.457-.532.874-.532l.024.001c.318.004.635.005.953.005h.675c.382 0 .764.001 1.145.008.244.005.6.097.806.34.111.132.224.262.337.393.425.489.865.996 1.204 1.572 1.193 2.026 1.737 4.224 2.187 6.901.212 1.265.404 2.554.589 3.801.155 1.042.315 2.119.486 3.175.233 1.437.521 2.955 1.233 4.343C.268-.661.244-.342 0 0" style="fill:#e30613;fill-opacity:1;fill-rule:nonzero;stroke:none" transform="translate(375.803 232.786)"/></g><g clip-path="url(#b)" transform="matrix(.72504 0 0 -.72504 -172.911 348.067)"><path d="M0 0c-.116.084-11.806 8.623-23.971 23.012-12.79 15.13-17.577 19.865-20.843 22.728-2.744 2.403-10.472 10.543-14.858 16.893-4.874 7.059-6.62 9.131-18.01 14.598-6.493 3.116-10.144 6.199-13.365 8.92-2.086 1.761-4.057 3.425-6.434 4.764-3.173 1.785-6.252 4.036-8.969 6.022-1.909 1.396-3.559 2.602-5 3.477-1.252.759-2.78 1.145-4.543 1.145-4.939 0-11.26-3.047-16.498-7.952-4.503-4.215-14.087-9.963-22.542-15.036-3.192-1.914-6.208-3.722-8.814-5.365-6.714-4.231-24.58-10.446-36.402-14.558-4.646-1.616-8.315-2.892-10.447-3.739-4.909-1.951-8.015-5.853-8.106-10.183-.045-2.146.644-4.146 1.944-5.822-5.819-2.655-16.256-7.509-25.368-12.219-13.806-7.138-21.225-14.984-21.534-15.314l-.985-1.053.206-1.422c.011-.076.266-1.82.792-4.716l.001-.113.068-.264c.092-.498.192-1.032.303-1.612l.331-1.694c.189-.944.397-1.949.621-3.006l.429-1.972c.271-1.216.565-2.487.886-3.829l.076-.313c2.779-11.474 7.628-27.34 14.947-37.768l2.845-4.054 2.319 4.375c.099.185 10.064 18.771 25.772 30.045l.089.065.084.069c1.502 1.251 3.279 2.552 3.727 2.757a3.64 3.64 0 0 1 1.367.81c1.746-.539 3.832-.97 6.038-.97.153 0 .305.002.458.006 4.145.112 9.911 1.124 12.443 1.603 3.797-2.473 16.627-10.148 29.636-10.148.207 0 .413.002.62.006 10.589.199 17.583 2.028 20.909 3.146 1.684-1.696 4.67-3.831 9.025-3.831 1.57 0 3.199.286 4.84.848 6.585 2.255 9.153 5.045 11.217 7.287.675.735 1.259 1.369 1.92 1.905 2.328 1.892 4.076 4.795 4.93 7.892 4.559-2.777 12.377-6.216 23.135-6.216 3.267 0 6.626.323 10.019.962 3.294-6.16 13.163-24.386 17.048-28.969 3.062-3.609 12.034-21.996 17.318-33.473l1.665-3.62 3.052 2.579c.153.129 3.82 3.245 8.839 9.073.518.6 1.052 1.236 1.603 1.902l.441.543c.413.503.827 1.02 1.256 1.563l.504.643c.436.561.878 1.138 1.329 1.738l.415.555c.587.787 1.175 1.598 1.771 2.442a126.188 126.188 0 0 1 3.86 5.809l.08.128c.615.987 1.229 2.004 1.863 3.087l-2.635 1.484 2.698-1.375C-5.648-32.117-.667-17.678 1.221-2.806l.221 1.76z" style="fill:#e30613;fill-opacity:1;fill-rule:nonzero;stroke:none" transform="translate(553.438 282.817)"/><path d="M0 0s-11.93 8.632-24.506 23.508-17.385 19.652-20.529 22.407c-3.144 2.754-10.911 11.019-15.35 17.447-4.439 6.428-5.733 8.265-16.83 13.591-11.097 5.326-14.426 10.652-19.974 13.774-5.548 3.123-10.727 7.53-14.056 9.55-3.329 2.021-10.912-.367-17.385-6.427-6.473-6.061-22.194-14.693-31.811-20.754-9.617-6.061-39.717-15.519-47.346-18.55-7.629-3.03-8.322-10.881-1.525-13.912 0 0-16.23-7.208-29.73-14.187-13.501-6.979-20.714-14.693-20.714-14.693s5.178-35.814 17.939-53.995c0 0 10.172 19.238 26.679 31.084 0 0 3.468 2.892 4.716 3.305 1.248.414-.971 2.618-.971 2.618s4.577-2.755 9.709-2.618c5.133.138 13.178 1.791 13.178 1.791s14.981-10.606 29.545-10.331c14.565.276 21.916 3.719 21.916 3.719s3.884-6.473 11.929-3.719c8.045 2.755 9.155 6.199 12.206 8.678 3.052 2.48 4.855 7.301 4.301 11.157 0 0 13.315-12.948 37.312-7.438 0 0 13.317-25.207 17.755-30.442 4.438-5.234 17.755-34.16 17.755-34.16S-5.456-42.977 0 0" style="fill:#1d1d1b;fill-opacity:1;fill-rule:nonzero;stroke:none" transform="translate(551.653 280.387)"/><path d="M0 0c-1.11 6.061-1.665 8.816-11.652 8.127C-21.639 7.438-34.261.551-45.497.964c-11.235.413-22.054-.689-29.128-3.03-7.075-2.342-21.778-10.331-32.32-16.943-8.651-5.426-16.14-11.493-18.552-13.498 1.789-9.779 6.611-32.118 15.387-46.463 3.729 7.905 11.458 16.34 15.788 21.117 4.993 5.51 13.87 11.295 13.94 12.23.069.934-.624 1.339-1.595 3.68s.416 5.028.971 3.857c.554-1.171 1.387-2.227 1.387-2.227 6.011-7.53 18.124-5.234 21.731-3.949 3.606 1.286 6.381 2.939 11.744 5.051 5.363 2.112 12.299 9.642 13.316 11.295 1.017 1.653.185 2.663-2.312 3.306-2.497.642-7.952 4.775-9.062 6.244-1.11 1.47-.648 2.847.37 2.572 1.017-.276 4.068-4.776 6.843-6.429 2.774-1.653 16.275-1.468 13.963-.367-2.312 1.102-4.438 5.143-5.178 6.887-.74 1.745-.555 5.418 1.109 1.47 1.665-3.949 3.792-5.969 5.641-7.347 1.85-1.377 4.439-.643 4.716-.275.278.367-.462.551-1.294 3.306-.833 2.755.462 8.907.925 3.524.462-5.383 3.976-9.494 6.75-11.973 2.774-2.48 9.987-3.214 5.363-4.224-4.623-1.01-9.016 5.74-9.016 5.74-3.884-.964-12.622-.964-12.622-.964 2.496-9.781 9.987-12.811 14.841-11.572 4.855 1.241 8.878 1.103 15.351 2.893 6.473 1.791 2.543 11.984 1.294 16.116C3.606-14.876 1.109-6.061 0 0" style="fill:#e30613;fill-opacity:1;fill-rule:nonzero;stroke:none" transform="translate(418.215 319.781)"/><path d="M0 0s8.785 0 12.854 1.836c4.068 1.837 6.75 4.867 7.952 4.684 1.202-.184 6.196-3.857 13.501-4.041 7.306-.183 10.635 1.194 12.392-.643 1.757-1.836 2.404-5.602.462-7.529C45.219-7.622 17.57-13.866 0 0" style="fill:#e30613;fill-opacity:1;fill-rule:nonzero;stroke:none" transform="translate(365.783 274.693)"/><path d="M0 0s.416 1.103-.832.965C-2.08.826-7.629-2.893-12.414-1.997c-4.785.895-5.064.62-4.785.138.277-.483 4.369-3.651 4.854-5.441.486-1.791.832-4.821-1.457-5.372-2.288-.552-5.132 2.893-7.004 5.785-1.873 2.893-2.081 1.79-2.358 1.515-.277-.275-3.503-4.121-1.457-8.678 2.046-4.556 9.378-4.339 12.006-1.997 2.629 2.342 8.87 5.992 11.159 10.4 0 0 1.248 2.479 1.456 5.647" style="fill:#e30613;fill-opacity:1;fill-rule:nonzero;stroke:none" transform="translate(441.587 282.66)"/><path d="M0 0s5.132-3.65 5.618-7.37c.485-3.719 5.391.584 2.774 4.408C5.774.862 4.37 1.928 2.774 1.377 1.179.826 0 0 0 0" style="fill:#e30613;fill-opacity:1;fill-rule:nonzero;stroke:none" transform="translate(420.087 278.527)"/><path d="M0 0s8.045-.275 9.571-5.028c1.526-4.752 1.804-9.366 3.26-11.708 1.457-2.342 3.606-7.162 4.299-10.744.695-3.581 1.111-9.986 0-11.777-1.109-1.79-9.015-1.722-9.015-1.722s1.309 4.408.793 7.163c-.516 2.755-2.18 9.366-4.469 15.358C2.15-12.466 3.052-4.683 1.803-2.755.555-.827 0 0 0 0" style="fill:#e30613;fill-opacity:1;fill-rule:nonzero;stroke:none" transform="translate(417.798 326.393)"/><path d="M0 0s9.89-.918 11.603-6.795c1.713-5.877 1.806-8.816 3.84-12.948 2.035-4.133 3.052-12.489-8.322-10.836 0 0 1.757 6.519-.463 11.295C4.439-14.509 1.942-13.407.833-5.693z" style="fill:#e30613;fill-opacity:1;fill-rule:nonzero;stroke:none" transform="translate(430.05 319.506)"/><path d="M0 0s2.127-.092 1.109 1.745C.093 3.581-3.606 5.51-6.473 7.438c-2.867 1.928-8.507 7.53-13.778 10.468-5.271 2.939-11.282 7.439-13.687 8.908-2.404 1.469-7.305.827-10.819-2.112-3.514-2.939-7.814-7.53-14.68-10.916C-66.303 10.399-77.955 2.34-80.659-.001c-2.705-2.341 12.276 3.72 14.218 4.615 1.941.896 13.801 4.477 18.448 7.576 4.646 3.1 15.05 6.268 21.569 1.86 6.52-4.408 11.79-9.092 16.991-10.607C-4.23 1.928 0 0 0 0" style="fill:#e30613;fill-opacity:1;fill-rule:nonzero;stroke:none" transform="translate(473.698 352.014)"/><path d="M0 0c-13.593 17.459-21.777 26.275-34.122 32.474-12.346 6.198-10.265 6.198-17.478 7.438-7.213 1.239-12.669 10.606-19.881 15.565-7.213 4.959-12.391 6.52-20.622 2.204-8.23-4.316-59.506-21.351-63.806-23.83 0 0-1.803-6.199-5.825-7.714-4.023-1.515-8.323-.826-8.323-.826s.832-8.265 14.148-5.923c0 0-3.606 6.474 4.439 9.779 8.045 3.307 56.87 20.662 61.032 22.866 4.162 2.204 7.49 2.617 6.519 1.378-.971-1.24-55.067-20.8-59.09-22.866 0 0 1.053-7.667-11.883-8.437 0 0-.37-5.016 5.456-4.832 5.826.183 12.947 3.397 15.351 6.152 0 0 10.079-.918 16.275 4.592 0 0 13.778-.544 19.512 3.539 5.733 4.083 6.38 3.44 6.657 3.072.278-.367-3.975-4.499-6.472-5.142-2.497-.643-2.59-1.745-1.804-2.112.786-.367 7.658-.184 13.84 3.673 6.181 3.857 4.516-.367 3.592-.826-.925-.459-7.615-5.051-12.5-4.867 0 0 6.142-5.625 14.742-2.457 8.6 3.168 9.224 4.339 10.334 3.65 1.109-.688 0-2.823-3.537-4.442-3.537-1.618-10.404-1.618-10.404-1.618s3.26-8.816 14.357-21.764c11.097-12.948 19.28-18.734 28.297-19.215 9.015-.482 13.455 6.405 15.258 7.093 1.803.689 2.219-1.79.554-4.82-1.664-3.031-5.27-6.612-5.548-8.403-.265-1.713 22.115-50.081 33.607-58.759 8.729 10.133 21.664 28.74 26.341 53.926C24.013-26.726 10.788-13.855 0 0" style="fill:#e30613;fill-opacity:1;fill-rule:nonzero;stroke:none" transform="translate(521.691 305.904)"/><path d="M0 0s-8.484-3.191-9.663-4.775c-1.179-1.584-.625-2.342.555-2.273 1.179.069 5.479.551 7.282 3.168S0 0 0 0" style="fill:#e30613;fill-opacity:1;fill-rule:nonzero;stroke:none" transform="translate(377.249 336.127)"/><path d="M0 0s-8.808-2.135-11.929-5.509c-3.121-3.375 4.092-1.842 5.34-1.437C-5.34-6.542-1.457-4.201 0 0" style="fill:#e30613;fill-opacity:1;fill-rule:nonzero;stroke:none" transform="translate(364.257 339.548)"/><path d="M0 0s-4.3-5.188.694-9.665c4.993-4.477 2.704-2.961 1.803-3.375-.902-.413-3.329-.138-4.855-.689-1.526-.55-6.935-1.239-9.293 1.722-2.358 2.962.277 3.582 1.803 3.169 1.526-.414 5.964 1.72 7.005 4.613C-1.803-1.332-2.15-.804 0 0" style="fill:#e30613;fill-opacity:1;fill-rule:nonzero;stroke:none" transform="translate(352.328 336.127)"/><path d="M0 0s-7.837-3.443-8.877-5.716c-1.041-2.273 2.357-1.378 3.745-.895C-3.745-6.129-.625-4.132 0 0" style="fill:#e30613;fill-opacity:1;fill-rule:nonzero;stroke:none" transform="translate(349.068 335.346)"/></g></svg>