<?xml version="1.0" encoding="UTF-8" standalone="no"?><svg xmlns:inkscape="http://www.inkscape.org/namespaces/inkscape" xmlns:sodipodi="http://sodipodi.sourceforge.net/DTD/sodipodi-0.dtd" xmlns="http://www.w3.org/2000/svg" xmlns:svg="http://www.w3.org/2000/svg" width="264.58334mm" height="264.5332mm" viewBox="0 0 264.58334 264.5332" version="1.1" id="svg603" inkscape:version="1.1.2 (0a00cf5339, 2022-02-04)" sodipodi:docname="redpatchkitekenpo.svg"><defs id="defs600"><clipPath clipPathUnits="userSpaceOnUse" id="clipPath230"><path d="M 413.031,417.19 C 352.598,413.847 300.724,363.605 300.155,298.286 v 0 c -0.579,-65.409 53.63,-121.333 122.405,-120.412 v 0 c 65.167,0.873 118.928,53.694 118.858,126.78 v 0 c -0.43,26.664 -12.357,55.638 -36.76,79.039 v 0 c -23.541,22.579 -51.66,33.719 -83.706,33.72 v 0 c -2.615,0 -5.254,-0.074 -7.921,-0.223 M 537.602,296.054 c 0.049,2.629 0,5.258 -0.13,7.866 v 0 c 0.14,-2.608 0.19,-5.227 0.14,-7.855 v 0 c -0.02,-0.924 -0.039,-1.846 -0.09,-2.768 v 0 c 0.04,0.922 0.06,1.835 0.08,2.757 m -7.073,-37.842 c -0.489,-1.33 -0.998,-2.639 -1.548,-3.957 v 0 c 0.539,1.309 1.059,2.637 1.548,3.957 m -2.387,-5.932 c 0.28,0.655 0.56,1.309 0.839,1.965 v 0 c -0.269,-0.656 -0.539,-1.31 -0.829,-1.965 v 0 c -1.658,-3.809 -3.515,-7.489 -5.574,-11.04 v 0 c 2.048,3.551 3.907,7.231 5.564,11.04" id="path228"/></clipPath><clipPath clipPathUnits="userSpaceOnUse" id="clipPath18"><path d="M 0,595.276 H 841.89 V 0 H 0 Z" id="path16"/></clipPath></defs><g inkscape:label="Layer 1" inkscape:groupmode="layer" id="layer1" transform="translate(-1.4562868,-2.8389982)"><g id="g12" transform="matrix(0.72504312,0,0,-0.72504312,-171.45495,350.906)"><g id="g14" clip-path="url(#clipPath18)"><g id="g20" transform="translate(600.9053,308.1769)"><path d="m 0,0 c 0.103,-109.797 -80.109,-189.13 -177.305,-190.448 -102.602,-1.378 -183.473,82.63 -182.609,180.88 0.865,98.132 78.234,173.597 168.381,178.623 52.752,2.945 98.704,-13.642 136.7,-50.334 C -18.449,83.583 -0.646,40.062 0,0" style="fill:#191917;fill-opacity:1;fill-rule:nonzero;stroke:none" id="path22"/></g><g id="g24" transform="translate(421.0928,475.0622)"><path d="m 0,0 c -3.821,0 -7.682,-0.109 -11.581,-0.327 -92.272,-5.145 -165.196,-82.519 -166.021,-176.149 -0.413,-46.922 18.69,-93.083 52.41,-126.647 33.566,-33.412 77.952,-51.727 125.208,-51.727 0.821,0 1.635,0.005 2.459,0.017 99.766,1.352 174.927,82.141 174.837,187.925 -0.677,41.79 -20.384,84.413 -54.069,116.945 C 88.877,-16.777 47.463,0 0,0 m 0.014,-359.85 c -48.59,0 -94.22,18.829 -128.734,53.183 -34.667,34.507 -54.306,81.976 -53.882,130.235 0.417,47.368 18.676,92.096 51.413,125.943 31.975,33.059 74.353,52.647 119.329,55.155 53.778,3.004 100.4,-14.167 138.576,-51.032 34.638,-33.452 54.901,-77.365 55.596,-120.479 v -0.038 c 0.05,-52.992 -18.722,-101.871 -52.857,-137.632 -33.424,-35.016 -78.496,-54.661 -126.913,-55.318 -0.844,-0.011 -1.687,-0.017 -2.528,-0.017" style="fill:#e30613;fill-opacity:1;fill-rule:nonzero;stroke:none" id="path26"/></g><g id="g28" transform="translate(594.2949,307.7897)"><path d="m 0,0 c 0.099,-105.764 -77.167,-182.183 -170.792,-183.454 -98.833,-1.326 -176.734,79.596 -175.902,174.237 0.833,94.529 75.361,167.221 162.196,172.062 50.814,2.838 95.079,-13.141 131.68,-48.485 C -17.771,80.512 -0.621,38.591 0,0" style="fill:#191917;fill-opacity:1;fill-rule:nonzero;stroke:none" id="path30"/></g><g id="g32" transform="translate(412.9561,470.7966)"><path d="M 0,0 C -0.029,1.1 0.841,2.03 1.94,2.06 3.04,2.1 3.971,1.23 4,0.12 4.03,-0.98 3.171,-1.9 2.061,-1.94 H 2 C 0.921,-1.94 0.04,-1.08 0,0 m 16.82,-2.03 v 0 c -1.099,0.05 -1.96,0.98 -1.91,2.08 0.051,1.11 0.981,1.96 2.09,1.91 1.101,-0.05 1.961,-0.98 1.9,-2.09 -0.04,-1.07 -0.929,-1.91 -1.99,-1.91 -0.029,0 -0.059,0 -0.09,0.01 m -31.67,0.81 c -0.129,1.1 0.661,2.09 1.75,2.22 1.1,0.12 2.09,-0.66 2.22,-1.76 0.12,-1.1 -0.659,-2.09 -1.76,-2.22 -0.08,0 -0.16,-0.01 -0.229,-0.01 -1,0 -1.87,0.75 -1.981,1.77 M 31.5,-3.29 v 0 c -1.09,0.14 -1.869,1.14 -1.729,2.23 0.139,1.1 1.139,1.88 2.24,1.73 1.099,-0.13 1.87,-1.14 1.729,-2.23 -0.13,-1.01 -0.99,-1.75 -1.979,-1.75 -0.09,0 -0.17,0 -0.261,0.02 m -61.029,-0.47 c -0.231,1.09 0.469,2.14 1.55,2.37 1.08,0.22 2.139,-0.47 2.36,-1.56 0.22,-1.08 -0.471,-2.13 -1.551,-2.36 -0.14,-0.03 -0.269,-0.04 -0.409,-0.04 -0.931,0 -1.761,0.65 -1.95,1.59 M 46.03,-5.79 c -1.08,0.24 -1.769,1.3 -1.54,2.38 0.24,1.08 1.3,1.77 2.38,1.53 1.08,-0.24 1.771,-1.3 1.53,-2.38 -0.2,-0.94 -1.03,-1.58 -1.95,-1.58 -0.139,0 -0.279,0.02 -0.42,0.05 m -89.96,-1.8 c -0.32,1.06 0.281,2.18 1.33,2.49 h 0.01 c 1.051,0.32 2.17,-0.28 2.49,-1.33 0.311,-1.06 -0.28,-2.18 -1.339,-2.5 -0.191,-0.05 -0.39,-0.08 -0.581,-0.08 -0.86,0 -1.65,0.56 -1.91,1.42 M 60.261,-9.56 v 0 c -1.061,0.33 -1.641,1.45 -1.311,2.51 0.33,1.05 1.46,1.64 2.511,1.3 1.05,-0.33 1.64,-1.45 1.31,-2.5 -0.271,-0.86 -1.06,-1.4 -1.911,-1.4 -0.2,0 -0.399,0.03 -0.599,0.09 m -118.2,-3.11 c -0.411,1.03 0.08,2.19 1.11,2.6 1.029,0.41 2.189,-0.09 2.6,-1.12 0.41,-1.02 -0.09,-2.18 -1.111,-2.6 -0.25,-0.09 -0.5,-0.14 -0.75,-0.14 -0.79,0 -1.54,0.48 -1.849,1.26 M 74.08,-14.62 c -1.019,0.43 -1.5,1.6 -1.069,2.62 0.429,1.02 1.599,1.5 2.609,1.07 1.021,-0.42 1.5,-1.59 1.08,-2.61 -0.319,-0.77 -1.069,-1.23 -1.849,-1.23 -0.26,0 -0.521,0.05 -0.771,0.15 m -145.54,-4.34 c -0.5,0.99 -0.1,2.19 0.891,2.69 0.979,0.5 2.189,0.1 2.679,-0.88 0.5,-0.99 0.101,-2.19 -0.88,-2.69 -0.29,-0.15 -0.599,-0.22 -0.9,-0.22 -0.729,0 -1.439,0.41 -1.79,1.1 m 158.841,-1.96 c -0.971,0.52 -1.351,1.73 -0.83,2.7 0.519,0.98 1.729,1.35 2.699,0.83 h 0.011 c 0.969,-0.52 1.34,-1.73 0.819,-2.7 -0.359,-0.68 -1.05,-1.07 -1.769,-1.07 -0.311,0 -0.63,0.08 -0.93,0.24 M -84.38,-26.38 c -0.58,0.94 -0.29,2.17 0.651,2.75 0.94,0.58 2.169,0.29 2.75,-0.65 0.58,-0.94 0.29,-2.17 -0.651,-2.75 -0.33,-0.2 -0.689,-0.3 -1.05,-0.3 -0.67,0 -1.32,0.34 -1.7,0.95 m 184.441,-2.02 c -0.93,0.6 -1.191,1.84 -0.59,2.77 0.599,0.92 1.84,1.18 2.769,0.58 0.92,-0.6 1.181,-1.84 0.58,-2.77 -0.38,-0.59 -1.019,-0.91 -1.679,-0.91 -0.37,0 -0.75,0.11 -1.08,0.33 m -196.68,-6.49 c -0.66,0.89 -0.481,2.14 0.409,2.8 0.891,0.66 2.141,0.47 2.801,-0.42 0.659,-0.88 0.47,-2.13 -0.41,-2.79 -0.361,-0.27 -0.781,-0.4 -1.191,-0.4 -0.62,0 -1.219,0.28 -1.609,0.81 m 208.67,-2.07 c -0.88,0.67 -1.03,1.93 -0.351,2.8 0.681,0.87 1.931,1.03 2.811,0.35 0.87,-0.68 1.019,-1.93 0.34,-2.81 -0.39,-0.5 -0.981,-0.77 -1.571,-0.77 -0.429,0 -0.87,0.14 -1.229,0.43 m -220.141,-7.45 c -0.739,0.83 -0.66,2.1 0.17,2.83 0.83,0.73 2.091,0.65 2.82,-0.18 0.731,-0.82 0.661,-2.09 -0.17,-2.82 -0.379,-0.34 -0.86,-0.5 -1.33,-0.5 -0.549,0 -1.099,0.23 -1.49,0.67 m 231.391,-2.08 c -0.811,0.75 -0.87,2.01 -0.12,2.83 0.74,0.81 2.009,0.87 2.819,0.12 0.82,-0.74 0.87,-2.01 0.131,-2.82 -0.401,-0.43 -0.931,-0.65 -1.481,-0.65 -0.479,0 -0.96,0.17 -1.349,0.52 m -242.021,-8.38 c -0.79,0.76 -0.83,2.03 -0.059,2.83 0.759,0.8 2.029,0.83 2.83,0.07 0.79,-0.77 0.819,-2.03 0.059,-2.83 -0.389,-0.41 -0.92,-0.62 -1.45,-0.62 -0.489,0 -0.989,0.18 -1.38,0.55 m 252.521,-1.99 v 0 c -0.75,0.81 -0.71,2.08 0.09,2.83 0.809,0.76 2.07,0.72 2.83,-0.09 0.75,-0.81 0.71,-2.07 -0.09,-2.83 -0.391,-0.36 -0.881,-0.54 -1.37,-0.54 -0.531,0 -1.061,0.21 -1.46,0.63 m -262.21,-9.33 c -0.861,0.69 -1,1.95 -0.311,2.81 0.7,0.86 1.95,1 2.811,0.3 0.87,-0.69 1,-1.95 0.309,-2.81 -0.389,-0.49 -0.969,-0.74 -1.559,-0.74 -0.441,0 -0.88,0.14 -1.25,0.44 m 271.859,-1.82 c -0.689,0.87 -0.55,2.13 0.321,2.81 0.86,0.69 2.12,0.55 2.809,-0.31 0.691,-0.87 0.54,-2.13 -0.319,-2.81 -0.37,-0.3 -0.811,-0.44 -1.25,-0.44 -0.58,0 -1.16,0.26 -1.561,0.75 m -280.55,-10.3 c -0.92,0.62 -1.16,1.86 -0.549,2.78 0.62,0.91 1.86,1.16 2.78,0.54 0.909,-0.61 1.159,-1.85 0.55,-2.77 -0.391,-0.58 -1.021,-0.89 -1.67,-0.89 -0.38,0 -0.771,0.11 -1.111,0.34 m 289.26,-1.59 v 0 c -0.62,0.92 -0.37,2.16 0.551,2.77 0.909,0.62 2.159,0.37 2.769,-0.54 0.621,-0.92 0.371,-2.16 -0.549,-2.78 -0.34,-0.23 -0.731,-0.34 -1.111,-0.34 -0.639,0 -1.28,0.31 -1.66,0.89 m -296.88,-11.22 c -0.969,0.53 -1.319,1.75 -0.78,2.72 v -0.01 c 0.53,0.97 1.75,1.32 2.711,0.79 0.97,-0.53 1.319,-1.75 0.789,-2.72 -0.369,-0.66 -1.05,-1.03 -1.75,-1.03 -0.329,0 -0.659,0.08 -0.97,0.25 m 304.55,-1.36 c -0.529,0.97 -0.18,2.19 0.78,2.72 0.97,0.53 2.191,0.18 2.72,-0.79 0.54,-0.96 0.191,-2.18 -0.779,-2.71 -0.311,-0.17 -0.641,-0.25 -0.971,-0.25 -0.699,0 -1.39,0.37 -1.75,1.03 m -311.04,-12.07 c -1.01,0.45 -1.46,1.64 -1.01,2.64 0.45,1.01 1.63,1.47 2.641,1.02 1.01,-0.45 1.46,-1.63 1.01,-2.64 -0.33,-0.75 -1.061,-1.19 -1.83,-1.19 -0.271,0 -0.54,0.06 -0.811,0.17 m 317.58,-1.13 c -0.439,1.02 0.021,2.2 1.03,2.64 1.01,0.45 2.191,-0.01 2.63,-1.02 0.45,-1.01 -0.009,-2.19 -1.019,-2.64 -0.261,-0.11 -0.54,-0.17 -0.811,-0.17 -0.769,0 -1.5,0.45 -1.83,1.19 m -322.88,-12.8 c -1.04,0.36 -1.599,1.5 -1.24,2.55 0.36,1.04 1.5,1.6 2.551,1.24 1.04,-0.36 1.59,-1.5 1.229,-2.55 -0.28,-0.83 -1.059,-1.35 -1.889,-1.35 -0.21,0 -0.43,0.04 -0.651,0.11 m 328.2,-0.92 c -0.349,1.05 0.21,2.18 1.26,2.53 1.05,0.35 2.181,-0.21 2.53,-1.26 0.35,-1.05 -0.209,-2.18 -1.259,-2.53 -0.21,-0.07 -0.42,-0.11 -0.63,-0.11 -0.841,0 -1.62,0.53 -1.901,1.37 m -332.28,-13.41 c -1.069,0.27 -1.72,1.36 -1.449,2.43 0.269,1.07 1.35,1.72 2.42,1.45 1.08,-0.27 1.729,-1.35 1.46,-2.43 -0.231,-0.9 -1.051,-1.51 -1.941,-1.51 -0.16,0 -0.33,0.02 -0.49,0.06 m 336.28,-0.75 v 0 c -0.25,1.08 0.42,2.15 1.5,2.4 1.071,0.25 2.151,-0.43 2.39,-1.5 0.25,-1.08 -0.42,-2.15 -1.5,-2.4 -0.149,-0.03 -0.3,-0.05 -0.449,-0.05 -0.91,0 -1.731,0.63 -1.941,1.55 m -339.11,-13.88 c -1.09,0.18 -1.84,1.21 -1.659,2.29 0.18,1.1 1.199,1.84 2.29,1.66 1.09,-0.18 1.84,-1.2 1.659,-2.29 -0.159,-0.98 -1.01,-1.68 -1.97,-1.68 -0.11,0 -0.21,0.01 -0.32,0.02 m 341.691,-0.59 v 0 c -0.14,1.09 0.639,2.09 1.729,2.23 1.101,0.14 2.101,-0.64 2.23,-1.73 h 0.01 c 0.13,-1.1 -0.639,-2.1 -1.74,-2.24 -0.079,-0.01 -0.17,-0.01 -0.25,-0.01 -0.989,0 -1.859,0.74 -1.979,1.75 M -165,-162.25 c -1.1,0.08 -1.93,1.04 -1.85,2.14 0.09,1.1 1.05,1.93 2.151,1.84 1.099,-0.08 1.929,-1.04 1.84,-2.14 -0.08,-1.05 -0.951,-1.85 -1.991,-1.85 -0.049,0 -0.099,0 -0.15,0.01 m 344.341,-0.76 v 0.14 c 0,0.06 -0.011,0.12 -0.011,0.18 -0.019,1.11 0.86,2.02 1.96,2.04 1.11,0.02 2.021,-0.86 2.04,-1.96 v -0.19 c 0,-0.07 0.011,-0.14 0.011,-0.21 0,-1.1 -0.901,-2 -2,-2 -1.111,0 -2,0.9 -2,2 m -346.7,-12.159 c -0.01,1.099 0.88,2.009 1.979,2.019 1.11,0.01 2.011,-0.88 2.021,-1.989 0.009,-1.101 -0.88,-2.011 -1.981,-2.011 h -0.019 c -1.101,0 -1.991,0.88 -2,1.981 m 348.049,-4.72 c -1.099,0.069 -1.929,1.029 -1.86,2.13 0.08,1.099 1.04,1.929 2.141,1.859 1.099,-0.08 1.929,-1.04 1.859,-2.14 -0.08,-1.049 -0.949,-1.86 -2,-1.86 -0.04,0 -0.09,0 -0.14,0.011 m -347.259,-10.341 c -0.111,1.101 0.7,2.08 1.799,2.19 1.1,0.1 2.071,-0.7 2.18,-1.799 0.101,-1.101 -0.699,-2.08 -1.8,-2.181 -0.07,-0.01 -0.13,-0.01 -0.2,-0.01 -1.01,0 -1.88,0.771 -1.979,1.8 m 345.549,-4.47 c -1.089,0.16 -1.849,1.17 -1.69,2.26 0.15,1.101 1.16,1.86 2.261,1.7 1.09,-0.149 1.849,-1.17 1.689,-2.26 -0.139,-1 -0.99,-1.719 -1.969,-1.719 -0.1,0 -0.191,0.01 -0.291,0.019 m -343.45,-10.449 c -0.2,1.079 0.51,2.13 1.601,2.329 1.09,0.2 2.13,-0.519 2.33,-1.599 0.199,-1.09 -0.511,-2.13 -1.601,-2.331 -0.12,-0.03 -0.24,-0.04 -0.37,-0.04 -0.939,0 -1.779,0.67 -1.96,1.641 m 340.651,-4.181 c -1.08,0.231 -1.76,1.3 -1.531,2.38 0.241,1.08 1.311,1.761 2.39,1.521 1.07,-0.24 1.761,-1.3 1.521,-2.38 -0.21,-0.931 -1.031,-1.57 -1.951,-1.57 -0.149,0 -0.29,0.009 -0.429,0.049 m -337.25,-10.5 c -0.3,1.061 0.319,2.161 1.389,2.46 1.061,0.29 2.16,-0.33 2.46,-1.389 0.3,-1.071 -0.33,-2.17 -1.389,-2.46 -0.18,-0.05 -0.361,-0.08 -0.54,-0.08 -0.88,0 -1.68,0.58 -1.92,1.469 m 333.33,-3.879 c -1.061,0.32 -1.66,1.44 -1.34,2.49 0.319,1.059 1.439,1.66 2.5,1.34 1.05,-0.321 1.649,-1.441 1.329,-2.5 -0.26,-0.861 -1.05,-1.42 -1.909,-1.42 -0.191,0 -0.391,0.03 -0.58,0.09 m -328.67,-10.46 c -0.391,1.04 0.139,2.19 1.17,2.58 1.04,0.389 2.189,-0.14 2.58,-1.17 0.38,-1.04 -0.141,-2.191 -1.181,-2.58 -0.229,-0.08 -0.46,-0.13 -0.699,-0.13 -0.811,0.01 -1.57,0.5 -1.87,1.3 m 323.63,-3.571 c -1.031,0.41 -1.54,1.571 -1.13,2.591 0.399,1.029 1.559,1.54 2.59,1.14 1.03,-0.41 1.53,-1.571 1.13,-2.59 -0.311,-0.79 -1.061,-1.28 -1.861,-1.28 -0.25,0 -0.489,0.049 -0.729,0.139 m -317.741,-10.3 c -0.48,1 -0.059,2.191 0.941,2.67 1,0.471 2.189,0.05 2.67,-0.95 0.47,-1 0.05,-2.189 -0.95,-2.67 -0.281,-0.13 -0.571,-0.189 -0.861,-0.189 -0.74,0 -1.46,0.42 -1.8,1.139 m 311.59,-3.269 c -0.99,0.489 -1.41,1.68 -0.92,2.67 0.491,1 1.68,1.41 2.68,0.92 0.99,-0.481 1.4,-1.68 0.91,-2.68 -0.34,-0.7 -1.05,-1.12 -1.79,-1.12 -0.3,0 -0.599,0.069 -0.88,0.21 m -304.53,-10.05 c -0.56,0.949 -0.239,2.18 0.71,2.739 0.95,0.561 2.181,0.241 2.74,-0.719 0.55,-0.951 0.231,-2.18 -0.719,-2.731 -0.321,-0.189 -0.661,-0.279 -1.01,-0.279 -0.681,0 -1.351,0.359 -1.721,0.99 m 297.29,-2.98 c -0.96,0.57 -1.26,1.799 -0.699,2.75 0.569,0.95 1.8,1.25 2.75,0.69 0.939,-0.57 1.25,-1.801 0.689,-2.75 v 0.01 c -0.38,-0.63 -1.04,-0.981 -1.719,-0.981 -0.351,0 -0.701,0.09 -1.021,0.281 m -289.119,-9.691 c -0.641,0.91 -0.431,2.16 0.47,2.79 0.899,0.641 2.149,0.431 2.79,-0.479 0.639,-0.901 0.42,-2.151 -0.481,-2.79 -0.349,-0.241 -0.75,-0.361 -1.149,-0.361 -0.63,0 -1.25,0.29 -1.63,0.84 m 280.81,-2.679 c -0.901,0.639 -1.1,1.889 -0.46,2.79 0.639,0.9 1.889,1.099 2.79,0.46 0.899,-0.64 1.099,-1.89 0.46,-2.791 -0.39,-0.549 -1,-0.839 -1.63,-0.839 -0.401,0 -0.811,0.13 -1.16,0.38 m -271.6,-9.241 c -0.71,0.841 -0.601,2.101 0.239,2.811 0.851,0.71 2.111,0.609 2.82,-0.24 0.71,-0.84 0.6,-2.1 -0.24,-2.821 -0.37,-0.309 -0.83,-0.469 -1.29,-0.469 -0.569,0 -1.13,0.25 -1.529,0.719 m 262.279,-2.389 c -0.84,0.719 -0.939,1.98 -0.22,2.82 0.71,0.84 1.97,0.939 2.821,0.22 0.83,-0.72 0.929,-1.981 0.22,-2.821 -0.401,-0.46 -0.96,-0.7 -1.531,-0.7 -0.45,0 -0.92,0.16 -1.29,0.481 m -252.08,-8.72 c -0.779,0.779 -0.779,2.05 0,2.83 0.78,0.779 2.051,0.779 2.83,0 0.78,-0.78 0.78,-2.051 0,-2.83 -0.389,-0.391 -0.91,-0.58 -1.42,-0.58 -0.509,0 -1.019,0.189 -1.41,0.58 m 241.79,-2.07 c -0.779,0.78 -0.769,2.049 0.021,2.83 0.79,0.769 2.049,0.759 2.83,-0.031 0.769,-0.779 0.76,-2.049 -0.021,-2.819 -0.389,-0.391 -0.899,-0.58 -1.41,-0.58 -0.51,0 -1.029,0.199 -1.42,0.6 m -230.689,-8.13 c -0.84,0.719 -0.95,1.979 -0.241,2.82 0.71,0.85 1.97,0.949 2.821,0.239 0.84,-0.71 0.949,-1.969 0.239,-2.819 -0.399,-0.471 -0.96,-0.71 -1.529,-0.71 -0.46,0 -0.91,0.159 -1.29,0.47 m 219.509,-1.731 c -0.709,0.851 -0.589,2.111 0.26,2.811 0.861,0.71 2.111,0.59 2.821,-0.26 0.7,-0.851 0.58,-2.11 -0.271,-2.82 -0.369,-0.311 -0.819,-0.46 -1.269,-0.46 -0.581,0 -1.151,0.25 -1.541,0.729 m -207.57,-7.489 c -0.91,0.64 -1.12,1.89 -0.489,2.79 0.64,0.899 1.89,1.119 2.79,0.48 0.899,-0.64 1.119,-1.89 0.479,-2.791 -0.389,-0.549 -1.009,-0.839 -1.629,-0.839 -0.401,0 -0.811,0.12 -1.151,0.36 m 195.57,-1.351 c -0.629,0.911 -0.4,2.151 0.51,2.781 0.91,0.63 2.16,0.4 2.781,-0.521 0.629,-0.909 0.4,-2.149 -0.51,-2.779 -0.351,-0.24 -0.74,-0.351 -1.13,-0.351 -0.641,0 -1.261,0.301 -1.651,0.87 m -182.9,-6.809 v 0 c -0.949,0.559 -1.269,1.78 -0.72,2.729 0.561,0.96 1.79,1.281 2.741,0.721 0.95,-0.561 1.269,-1.78 0.719,-2.73 -0.38,-0.64 -1.04,-1 -1.729,-1 -0.341,0 -0.691,0.089 -1.011,0.28 M 90,-325.589 c -0.539,0.96 -0.21,2.179 0.761,2.73 0.96,0.539 2.179,0.199 2.719,-0.761 0.55,-0.96 0.21,-2.179 -0.75,-2.729 v 0.01 c -0.309,-0.18 -0.65,-0.26 -0.99,-0.26 -0.7,0 -1.37,0.359 -1.74,1.01 m -156.829,-6.1 v 0 c -1,0.48 -1.431,1.67 -0.95,2.67 0.469,1 1.66,1.42 2.66,0.949 1,-0.479 1.42,-1.67 0.949,-2.67 -0.34,-0.719 -1.059,-1.139 -1.809,-1.139 -0.281,0 -0.581,0.059 -0.85,0.19 m 143.47,-0.5 c -0.451,1.01 -0.01,2.189 0.99,2.649 1.01,0.46 2.199,0.01 2.659,-0.99 0.45,-1.01 0.011,-2.199 -1,-2.649 -0.269,-0.12 -0.55,-0.18 -0.829,-0.18 -0.761,0 -1.481,0.43 -1.82,1.17 m -129.571,-5.36 v 0 c -1.04,0.389 -1.57,1.53 -1.179,2.57 0.38,1.04 1.53,1.56 2.57,1.18 1.029,-0.39 1.56,-1.54 1.18,-2.571 -0.3,-0.809 -1.071,-1.309 -1.88,-1.309 -0.231,0 -0.471,0.04 -0.691,0.13 m 115.68,-0.031 c -0.369,1.05 0.181,2.191 1.23,2.55 1.041,0.37 2.18,-0.179 2.55,-1.22 0.361,-1.049 -0.189,-2.189 -1.229,-2.549 -0.221,-0.08 -0.441,-0.111 -0.66,-0.111 -0.83,0 -1.601,0.511 -1.891,1.33 m -101.34,-4.609 v 0 c -1.069,0.3 -1.689,1.399 -1.399,2.46 0.3,1.069 1.399,1.689 2.46,1.399 1.069,-0.29 1.689,-1.399 1.399,-2.46 -0.25,-0.889 -1.05,-1.469 -1.93,-1.469 -0.169,0 -0.349,0.019 -0.53,0.07 m 87.03,0.47 c -0.269,1.08 0.38,2.16 1.451,2.439 1.07,0.271 2.16,-0.38 2.429,-1.449 0.271,-1.07 -0.37,-2.16 -1.439,-2.431 -0.17,-0.04 -0.341,-0.059 -0.5,-0.059 -0.891,0 -1.71,0.599 -1.941,1.5 m -72.339,-3.84 c -1.08,0.2 -1.8,1.239 -1.601,2.33 0.2,1.09 1.24,1.8 2.33,1.6 1.08,-0.201 1.801,-1.241 1.601,-2.33 -0.181,-0.96 -1.021,-1.63 -1.96,-1.63 -0.12,0 -0.25,0.009 -0.37,0.03 m 57.719,0.979 c -0.179,1.09 0.561,2.121 1.651,2.3 1.09,0.181 2.12,-0.569 2.3,-1.659 0.179,-1.091 -0.571,-2.11 -1.651,-2.29 -0.109,-0.021 -0.22,-0.03 -0.33,-0.03 -0.96,0 -1.81,0.7 -1.97,1.679 m -42.79,-3.069 v 0 c -1.099,0.1 -1.91,1.079 -1.8,2.18 0.1,1.099 1.081,1.899 2.18,1.8 1.101,-0.111 1.91,-1.081 1.801,-2.18 -0.101,-1.04 -0.971,-1.811 -1.99,-1.811 -0.061,0 -0.13,0 -0.191,0.011 m 27.97,1.5 c -0.079,1.1 0.75,2.06 1.851,2.14 1.099,0.08 2.059,-0.741 2.139,-1.84 0.08,-1.11 -0.75,-2.07 -1.84,-2.151 H 21.141 20.99 c -1.04,0 -1.91,0.8 -1.99,1.851 m -12.93,-2.31 c -1.099,0.009 -1.979,0.919 -1.969,2.02 0.009,1.1 0.92,1.989 2.019,1.98 1.11,-0.02 1.99,-0.92 1.981,-2.031 -0.021,-1.09 -0.911,-1.969 -2,-1.969 z" style="fill:#e30613;fill-opacity:1;fill-rule:nonzero;stroke:none" id="path34"/></g><g id="g36" transform="translate(588.4473,307.4474)"><path d="m 0,0 c 0.095,-102.196 -74.564,-176.037 -165.03,-177.265 -95.5,-1.282 -170.773,76.911 -169.969,168.359 0.805,91.339 72.818,161.579 156.725,166.258 49.1,2.741 91.872,-12.698 127.237,-46.85 C -17.172,77.796 -0.601,37.289 0,0" style="fill:#191917;fill-opacity:1;fill-rule:nonzero;stroke:none" id="path38"/></g><g id="g40" transform="translate(421.0889,463.6066)"><path d="m 0,0 c -3.575,0 -7.185,-0.102 -10.832,-0.305 -86.317,-4.813 -154.536,-77.19 -155.308,-164.774 -0.386,-43.894 17.483,-87.076 49.025,-118.473 31.401,-31.256 72.916,-48.387 117.124,-48.387 0.765,0 1.532,0.004 2.299,0.015 93.325,1.267 163.633,76.828 163.55,175.754 -0.634,39.115 -19.069,79.003 -50.579,109.434 C 83.134,-15.694 44.395,0 0,0 m 0.008,-334.939 c -45.01,0 -87.27,17.438 -119.24,49.261 -32.111,31.963 -50.301,75.929 -49.908,120.626 0.387,43.876 17.299,85.305 47.62,116.656 29.617,30.621 68.867,48.764 110.52,51.086 49.815,2.781 93.003,-13.122 128.363,-47.268 32.083,-30.985 50.853,-71.646 51.495,-111.558 v -0.022 c 0.046,-49.11 -17.345,-94.403 -48.969,-127.532 -30.955,-32.43 -72.7,-50.625 -117.54,-51.234 -0.779,-0.011 -1.565,-0.015 -2.341,-0.015" style="fill:#e30613;fill-opacity:1;fill-rule:nonzero;stroke:none" id="path42"/></g><g id="g44" transform="translate(254.5723,328.1652)"><path d="m 0,0 43.588,-10.33 v -22.553 l -45.731,-7.198 c 0,0 -1.606,23.465 2.143,40.081" style="fill:#e30613;fill-opacity:1;fill-rule:nonzero;stroke:none" id="path46"/></g><g id="g48" transform="translate(585.3945,328.4953)"><path d="M 0,0 -44.973,-10.678 V -33.99 l 47.184,-7.441 c 0,0 1.657,24.256 -2.211,41.431" style="fill:#e30613;fill-opacity:1;fill-rule:nonzero;stroke:none" id="path50"/></g><g id="g52" transform="translate(255.9082,311.3972)"><path d="M 0,0 11.016,-0.01 10.615,-2.029 H 5.598 l -0.39,-1.99 4.978,0.011 -0.39,-1.999 -4.998,0.009 -0.409,-2.019 C 4.241,-8.683 4.535,-9.026 5.268,-9.046 l 3.919,0.02 -0.371,-1.95 H 2.829 c -2.019,-0.006 -2.898,0.65 -2.639,1.97 l 0.61,3.008 h -1.969 l 0.39,1.99 1.999,0.009 0.41,2.03 -2.01,-0.01 z" style="fill:#191917;fill-opacity:1;fill-rule:nonzero;stroke:none" id="path54"/></g><g id="g56" transform="translate(271.9014,311.3869)"><path d="M 0,0 H 6.987 L 6.607,-1.999 H 0.64 l -0.38,-1.939 2.869,-0.54 c 1.912,-0.353 2.802,-0.853 2.669,-1.499 l -0.61,-3.049 c -0.266,-1.293 -1.376,-1.943 -3.329,-1.949 h -7.037 l 0.38,1.989 H 1.2 l 0.409,1.939 -2.898,0.55 c -1.926,0.36 -2.825,0.85 -2.699,1.469 l 0.61,3.029 C -3.099,-0.666 -1.973,0 0,0" style="fill:#191917;fill-opacity:1;fill-rule:nonzero;stroke:none" id="path58"/></g><g id="g60" transform="translate(286.3848,308.4186)"><path d="m 0,0 -0.039,-0.03 -1.62,-7.977 H -5.637 L -4.008,0 h -2.999 l 0.441,2.059 h 4.977 c 0.647,-0.014 1.033,0.286 1.159,0.899 l 0.221,1.08 H 3.829 L 3.419,1.999 h 0.02 L 3.419,1.989 C 3.159,0.663 2.022,0 0.011,0 Z" style="fill:#191917;fill-opacity:1;fill-rule:nonzero;stroke:none" id="path62"/></g><g id="g64" transform="translate(267.5322,271.4016)"><path d="m 0,0 0.798,-4.144 c 0.271,-1.38 0.513,-2.766 0.865,-4.129 2.262,0.044 4.52,0.106 6.773,0.188 -3.029,-2.596 -6.107,-5.341 -8.97,-8.167 0.769,-2.663 1.496,-5.34 2.426,-7.953 4.075,4.035 8.391,7.884 12.759,11.487 2.164,-1.009 4.274,-1.974 6.435,-2.862 2.187,-0.88 4.355,-1.704 6.501,-2.474 -0.765,2.309 -1.595,4.598 -2.218,6.95 -2.427,1.094 -4.917,2.253 -7.277,3.53 2.749,0.158 5.49,0.345 8.223,0.562 l -0.817,3.417 c -0.286,1.136 -0.553,2.277 -0.752,3.432 C 16.549,-0.37 8.296,-0.317 0,0" style="fill:#e30613;fill-opacity:1;fill-rule:nonzero;stroke:none" id="path66"/></g><g id="g68" transform="translate(291.2021,252.5949)"><path d="m 0,0 0.611,-1.767 0.685,-1.74 -4.133,-0.722 c -0.492,1.18 -0.876,2.399 -1.295,3.606 l -4.064,-0.573 c 0.422,-1.224 0.805,-2.462 1.259,-3.674 -2.062,-0.326 -4.105,-0.628 -6.153,-0.913 -1.343,-0.194 -2.199,-0.833 -2.512,-1.929 -0.294,-1.087 -0.052,-2.633 0.724,-4.618 0.724,-1.979 1.62,-3.887 2.453,-5.82 0.814,-1.945 1.756,-3.829 2.688,-5.716 l 3.878,1.07 -1.793,3.609 c -0.584,1.208 -1.102,2.449 -1.656,3.672 -0.569,1.401 -0.167,2.22 1.199,2.47 l 4.098,0.852 c 0.667,-1.502 1.288,-3.025 1.992,-4.509 l 2.165,-4.43 3.938,1.176 c -1.4,2.856 -2.863,5.685 -4.09,8.624 l 3.991,0.944 0.936,-2.141 c 0.323,-0.709 0.683,-1.401 1.022,-2.102 0.702,-1.39 1.341,-2.813 2.09,-4.181 l 3.972,1.273 C 8.902,-11.674 6.229,-5.585 4.011,0.666 Z" style="fill:#e30613;fill-opacity:1;fill-rule:nonzero;stroke:none" id="path70"/></g><g id="g72" transform="translate(283.3423,224.9445)"><path d="m 0,0 c 1.36,-2.47 2.681,-4.963 4.187,-7.348 4.096,1.413 8.156,2.889 12.176,4.428 -2.854,-3.489 -5.524,-7.014 -8.186,-10.684 l 1.759,-2.628 c 2.409,-3.387 4.88,-4.541 7.482,-3.339 5.595,2.747 11.1,5.611 16.51,8.59 l -2.303,2.856 -2.18,2.949 c -3.104,-1.511 -6.236,-2.986 -9.393,-4.425 2.348,3.808 4.846,7.537 7.39,11.111 -0.685,0.983 -1.282,2.021 -1.903,3.045 l -1.85,3.077 C 15.925,4.853 8.025,2.307 0,0" style="fill:#e30613;fill-opacity:1;fill-rule:nonzero;stroke:none" id="path74"/></g><g id="g76" transform="translate(316.0142,209.0402)"><path d="m 0,0 c 2.836,-3.314 5.777,-6.546 8.919,-9.574 -2.278,-1.584 -4.579,-3.147 -6.902,-4.688 -0.946,0.914 -1.803,1.915 -2.708,2.867 l -3.46,-2.244 c 1.379,-1.447 2.725,-2.926 4.186,-4.294 1.468,-1.359 2.827,-2.207 4.112,-2.476 1.298,-0.256 2.477,0.017 3.545,0.812 2.205,1.666 4.389,3.351 6.55,5.055 2.142,1.702 1.821,3.688 -0.779,6.096 -1.715,1.681 -3.482,3.312 -5.099,5.092 -0.82,0.877 -1.663,1.734 -2.468,2.625 L 3.534,1.992 Z m -16.386,-8.854 c 1.723,-2.223 3.638,-4.286 5.478,-6.41 4.736,2.739 9.48,5.642 14.098,8.587 -1.78,1.803 -3.376,3.775 -5.055,5.67 -4.805,-2.736 -9.605,-5.318 -14.521,-7.847" style="fill:#e30613;fill-opacity:1;fill-rule:nonzero;stroke:none" id="path78"/></g><g id="g80" transform="translate(343.6133,184.0783)"><path d="m 0,0 c -3.39,-3.414 -6.854,-6.778 -10.392,-10.09 -1.659,1.2 -3.287,2.444 -4.93,3.664 3.661,3.168 7.253,6.392 10.772,9.667 l 2.241,-1.668 z m -10.385,7.901 c -3.713,-3.107 -7.511,-6.175 -11.325,-9.127 -1.057,-0.823 -1.471,-1.78 -1.222,-2.887 0.271,-1.08 1.224,-2.289 2.843,-3.618 1.339,-1.128 2.74,-2.177 4.147,-3.218 1.41,-1.036 2.782,-2.126 4.246,-3.087 1.753,-1.197 3.32,-1.856 4.678,-1.963 1.381,-0.075 2.554,0.398 3.513,1.392 3.332,3.491 6.589,7.029 9.77,10.614 1.8,2.04 1.14,4.002 -1.905,5.925 L 0.62,4.484 c -1.253,0.842 -2.429,1.794 -3.649,2.683 -1.465,1.059 -2.758,1.699 -3.97,1.837 -1.215,0.133 -2.347,-0.233 -3.386,-1.103" style="fill:#e30613;fill-opacity:1;fill-rule:nonzero;stroke:none" id="path82"/></g><g id="g84" transform="translate(353.4165,161.9514)"><path d="m 0,0 c 2.391,-1.271 4.896,-2.302 7.35,-3.439 2.792,3.929 5.536,7.99 8.173,12.039 l 1.7,-0.66 c -2.94,-4.718 -5.992,-9.393 -9.156,-14.021 2.565,-0.995 5.088,-2.1 7.705,-2.953 2.892,4.764 5.671,9.57 8.337,14.414 0.609,-0.212 1.229,-0.391 1.852,-0.557 -2.928,-5.517 -5.964,-10.882 -9.158,-16.238 2.613,-0.971 5.303,-1.703 7.965,-2.522 2.86,5.438 5.609,11.029 8.202,16.609 0.579,1.247 0.559,2.3 -0.03,3.149 -0.295,0.427 -0.736,0.794 -1.316,1.127 -0.574,0.354 -1.291,0.663 -2.155,0.927 L 26.046,8.91 24.85,6.731 c 0.68,1.451 -0.275,2.664 -2.853,3.622 -1.49,0.483 -2.922,1.122 -4.381,1.689 l 1.122,1.779 c -1.09,0.452 -2.203,0.847 -3.274,1.341 l -3.223,1.461 C 8.303,10.955 4.231,5.432 0,0" style="fill:#e30613;fill-opacity:1;fill-rule:nonzero;stroke:none" id="path86"/></g><g id="g88" transform="translate(383.1851,150.1027)"><path d="m 0,0 c 1.343,-0.33 2.677,-0.7 4.029,-0.996 l 4.064,-0.839 c 1.977,4.721 3.848,9.423 5.636,14.236 1.874,-0.297 3.743,-0.629 5.62,-0.902 C 18.496,8.87 17.623,6.306 16.716,3.712 l -4.05,0.627 -1.526,-3.924 4.205,-0.651 -2.131,-5.799 c 1.327,-0.202 2.647,-0.458 3.98,-0.612 l 3.999,-0.467 c 1.897,5.897 3.646,11.801 5.256,17.804 0.716,2.664 -0.716,4.072 -4.215,4.523 -2.376,0.227 -4.724,0.643 -7.076,1.025 l 0.686,1.904 -1.779,0.281 -1.763,0.361 -3.526,0.726 C 6.033,12.918 3.119,6.459 0,0" style="fill:#e30613;fill-opacity:1;fill-rule:nonzero;stroke:none" id="path90"/></g><g id="g92" transform="translate(413.2637,160.5666)"><path d="M 0,0 C 1.089,-0.095 2.182,-0.112 3.275,-0.13 L 6.553,-0.2 c 2.184,-0.051 4.37,0.081 6.554,0.107 l -0.95,-6.084 C 10.228,-6.193 8.298,-6.324 6.368,-6.248 l 0.754,4.018 -3.816,0.096 -1.908,0.048 -1.903,0.129 c -1.313,-5.35 -2.741,-10.692 -4.286,-16.025 2.804,-0.192 5.606,-0.418 8.416,-0.433 0.638,2.669 1.246,5.339 1.826,8.01 l 1.859,-0.062 c 0.839,-2.69 1.724,-5.324 2.654,-7.988 l 4.244,0.088 c 1.414,0.036 2.825,0.167 4.238,0.247 -1.084,2.67 -2.121,5.343 -3.111,8.018 2.662,0.167 4.12,1.222 4.349,3.163 0.41,3.776 0.765,7.55 1.06,11.366 C 14.17,3.815 7.545,3.663 0.942,3.958 Z" style="fill:#e30613;fill-opacity:1;fill-rule:nonzero;stroke:none" id="path94"/></g><g id="g96" transform="translate(448.7109,161.0832)"><path d="M 0,0 C 3.744,0.724 5.497,2.619 5.296,5.336 L 5.326,5.364 5.291,5.355 4.989,9.546 1.51,8.672 -2.006,7.949 -1.968,5.722 C -1.953,4.464 -2.528,3.693 -3.701,3.52 L -8.205,2.801 c -1.497,-0.273 -3.02,-0.367 -4.527,-0.563 l -0.367,-4.246 c 1.873,0.24 3.762,0.369 5.622,0.696 -0.228,-5.538 -0.586,-11.022 -1.062,-16.521 l 2.084,0.241 2.072,0.329 4.146,0.663 c 0.176,5.485 0.22,11.04 0.157,16.521 l 0.061,0.075 z" style="fill:#e30613;fill-opacity:1;fill-rule:nonzero;stroke:none" id="path98"/></g><g id="g100" transform="translate(459.9258,147.0246)"><path d="M 0,0 C 2.748,0.643 5.43,1.522 8.133,2.323 7.377,9.82 6.355,17.407 5.153,24.833 4.01,24.447 2.886,24.005 1.729,23.662 L -1.737,22.618 C -0.927,15.078 -0.354,7.566 0,0" style="fill:#e30613;fill-opacity:1;fill-rule:nonzero;stroke:none" id="path102"/></g><g id="g104" transform="translate(471.9385,154.131)"><path d="m 0,0 c 2.629,0.866 5.172,1.963 7.746,2.979 -0.977,4.99 -2.082,10.02 -3.267,14.983 1.719,0.798 3.486,1.499 5.164,2.39 0.75,-2.643 1.474,-5.299 2.172,-7.967 L 8.092,10.674 9.01,6.571 l 3.868,1.774 1.46,-5.993 1.836,0.829 1.8,0.903 3.597,1.811 c -1.708,5.942 -3.592,11.898 -5.583,17.736 -0.438,1.303 -1.17,2.057 -2.166,2.276 -0.997,0.216 -2.252,-0.118 -3.845,-0.886 L 6.783,23.413 C 5.708,22.9 4.611,22.433 3.528,21.938 l -0.49,1.959 C 1.938,23.418 0.866,22.873 -0.255,22.441 L -3.597,21.104 C -2.19,14.081 -1.005,7.082 0,0" style="fill:#e30613;fill-opacity:1;fill-rule:nonzero;stroke:none" id="path106"/></g><g id="g108" transform="translate(497.0781,161.9494)"><path d="m 0,0 c 1.224,0.706 2.48,1.355 3.675,2.111 1.849,2.233 3.721,4.345 5.411,6.648 l 2.547,3.37 c 0.818,1.146 1.607,2.313 2.397,3.459 l -1.894,4 C 11.012,17.998 9.919,16.323 8.715,14.764 7.514,13.2 6.309,11.599 5.055,10.03 3.026,15.151 0.872,20.254 -1.363,25.266 -3.333,23.862 -5.414,22.631 -7.462,21.35 -4.747,14.28 -2.297,7.226 0,0" style="fill:#e30613;fill-opacity:1;fill-rule:nonzero;stroke:none" id="path110"/></g><g id="g112" transform="translate(523.0957,184.7228)"><path d="m 0,0 1.545,1.384 1.49,1.442 2.978,2.888 C 3.168,9.976 0.232,14.187 -2.762,18.312 l 1.967,2.06 c 0.655,0.688 1.257,1.422 1.889,2.13 C 2.797,20.351 4.48,18.176 6.145,15.98 5.27,14.93 4.292,13.973 3.371,12.964 L 5.787,9.53 8.691,12.639 c 1.236,-1.657 2.441,-3.306 3.646,-4.978 1.827,1.965 3.562,4.015 5.319,6.042 -3.887,4.865 -7.871,9.618 -11.945,14.254 -1.829,2.075 -3.805,1.671 -6.082,-1.023 -1.578,-1.788 -3.107,-3.622 -4.788,-5.315 l -1.201,1.62 -2.479,-2.618 -2.591,-2.507 C -9.444,15.153 -7.494,12.157 -5.58,9.129 -3.676,6.109 -1.825,3.076 0,0" style="fill:#e30613;fill-opacity:1;fill-rule:nonzero;stroke:none" id="path114"/></g><g id="g116" transform="translate(531.0098,215.5705)"><path d="m 0,0 c 1.268,1.778 2.612,3.502 3.78,5.35 1.212,1.816 2.432,3.629 3.524,5.52 L 11.871,6.706 C 10.907,5.032 9.77,3.47 8.721,1.85 L 5.776,4.708 C 4.404,2.565 2.853,0.548 1.358,-1.51 5.124,-5.591 8.747,-9.71 12.323,-13.939 l 1.313,1.649 1.248,1.699 2.483,3.407 c -1.852,1.997 -3.763,3.996 -5.675,5.96 l 1.047,1.537 c 2.696,-0.78 5.416,-1.522 8.161,-2.225 0.798,1.171 1.492,2.408 2.241,3.61 0.722,1.218 1.502,2.404 2.173,3.652 -2.798,0.553 -5.638,1.186 -8.432,1.847 0.71,1.128 1.02,2.161 0.961,3.07 -0.05,0.902 -0.449,1.668 -1.197,2.301 -2.936,2.434 -5.9,4.819 -8.889,7.154 C 4.698,13.874 1.134,8.293 -2.791,2.986 Z" style="fill:#e30613;fill-opacity:1;fill-rule:nonzero;stroke:none" id="path118"/></g><g id="g120" transform="translate(550.1562,245.3879)"><path d="M 0,0 C 1.384,3.552 0.887,6.016 -1.535,7.361 L -1.542,7.403 -1.554,7.368 -5.224,9.431 -5.795,7.729 -6.439,6.056 -7.732,2.708 -5.849,1.51 c 1.067,-0.686 1.336,-1.567 0.836,-2.642 -0.624,-1.385 -1.19,-2.798 -1.858,-4.163 l -2.012,-4.093 3.341,-2.649 2.508,5.08 c 4.445,-3.224 8.841,-6.557 13.181,-9.996 l 1.847,3.77 1.688,3.844 c -4.507,3.186 -9.008,6.24 -13.66,9.228 l -0.029,0.092 z" style="fill:#e30613;fill-opacity:1;fill-rule:nonzero;stroke:none" id="path122"/></g><g id="g124" transform="translate(551.7803,255.6486)"><path d="m 0,0 c 1.829,-0.984 3.653,-1.984 5.472,-3.001 1.089,-0.621 2.692,0.699 4.412,4.188 0.896,1.74 1.794,3.494 2.575,5.294 L 16.081,4.72 c -0.44,-2.009 -1.095,-3.961 -1.639,-5.943 -0.533,-1.985 -1.227,-3.922 -1.878,-5.87 l 3.561,-2.066 c 0.782,2.348 1.624,4.68 2.268,7.071 l 1.027,3.569 c 0.345,1.189 0.597,2.403 0.898,3.603 1.001,4.01 0.086,6.59 -2.375,7.62 C 16,13.511 14.054,14.3 12.104,15.073 10.843,15.574 9.583,14.027 8.087,10.583 7.293,8.87 6.527,7.164 5.721,5.483 l -3.623,1.698 1.3,5.402 1.061,5.455 -3.861,1.375 -1.217,-6.194 C -1.131,11.178 -1.571,9.118 -2.128,7.09 -3.118,3.678 -2.368,1.317 0,0" style="fill:#e30613;fill-opacity:1;fill-rule:nonzero;stroke:none" id="path126"/></g><g id="g128" transform="translate(291.4849,336.8854)"><path d="M 0,0 C 0.661,1.971 1.254,3.964 1.959,5.919 L -3.92,9.13 c 3.881,0.17 7.673,0.253 11.513,0.197 0.769,1.775 1.44,3.593 2.278,5.339 -5.507,0.54 -10.933,0.813 -16.533,0.931 -1.142,1.914 -2.266,3.875 -3.369,5.881 -1.094,2.001 -2.099,4.018 -3.119,6.096 l -1.544,-3.33 -1.417,-3.387 1.839,-3.526 c 0.643,-1.169 1.303,-2.327 1.964,-3.467 -2.374,1.393 -4.738,2.811 -7.094,4.252 -0.82,-2.281 -1.741,-4.527 -2.451,-6.846 C -14.64,7.297 -7.352,3.54 0,0" style="fill:#e30613;fill-opacity:1;fill-rule:nonzero;stroke:none" id="path130"/></g><g id="g132" transform="translate(297.9414,353.9699)"><path d="M 0,0 1.316,2.837 2.74,5.621 c -6.069,4.42 -12.093,9.031 -17.929,13.755 -1.192,-2.116 -2.247,-4.308 -3.372,-6.461 C -12.464,8.443 -6.266,4.133 0,0" style="fill:#e30613;fill-opacity:1;fill-rule:nonzero;stroke:none" id="path134"/></g><g id="g136" transform="translate(295.3892,382.3972)"><path d="M 0,0 C 1.927,2.933 2.091,5.266 0.182,7.257 L 0.187,7.298 0.166,7.269 -2.72,10.328 -4.917,7.327 C -5.637,6.318 -6.313,5.277 -7.011,4.253 l 1.593,-1.554 c 0.905,-0.883 1.023,-1.795 0.354,-2.742 -0.813,-1.249 -1.578,-2.529 -2.367,-3.792 l -1.17,-1.905 -1.101,-1.946 3.249,-2.741 c 0.853,1.526 1.712,3.048 2.653,4.521 4.13,-3.636 8.273,-7.159 12.541,-10.64 1.052,1.781 2.158,3.532 3.254,5.288 -4.053,3.633 -8.052,7.35 -11.994,11.152 l -0.011,0.091 z" style="fill:#e30613;fill-opacity:1;fill-rule:nonzero;stroke:none" id="path138"/></g><g id="g140" transform="translate(298.1436,389.7682)"><path d="M 0,0 C 0.681,0.973 1.434,1.89 2.162,2.827 L 4.955,-0.274 C 4.233,-1.169 3.547,-2.09 2.883,-3.028 l 2.85,-2.936 c 0.661,0.881 1.279,1.794 1.98,2.643 l 4.223,-4.502 c 1.874,-1.937 3.793,-1.658 5.738,0.809 0.944,1.241 2.006,2.384 3.009,3.576 0.997,1.199 2.061,2.337 3.129,3.473 l -2.488,3.13 -2.131,-2.318 -2.044,-2.393 c -0.797,-0.865 -1.64,-0.777 -2.52,0.273 l -2.687,3.157 c 0.919,1.053 1.817,2.123 2.753,3.161 l 2.863,3.061 -2.478,3.29 C 13.135,9.297 11.169,7.22 9.343,5.017 L 6.729,8.166 c 1.896,2.275 3.967,4.394 5.982,6.561 l -2.424,3.365 C 5.627,13.319 1.255,8.267 -2.801,2.968 Z" style="fill:#e30613;fill-opacity:1;fill-rule:nonzero;stroke:none" id="path142"/></g><g id="g144" transform="translate(321.0107,414.0778)"><path d="m 0,0 3.213,-5.332 c 0.663,-1.085 2.478,-0.847 5.383,0.664 l 4.472,2.098 1.87,-3.532 c -1.252,-1.006 -2.552,-1.955 -3.769,-3.004 l -3.667,-3.13 2.243,-3.42 c 1.349,1.239 2.78,2.384 4.163,3.584 1.406,1.173 2.874,2.27 4.305,3.412 2.432,1.822 3.086,3.888 1.929,6.299 L 17.43,3.292 C 16.862,4.511 15.069,4.474 11.99,3.127 10.43,2.483 8.938,1.729 7.409,1.004 l -1.908,3.503 2.08,1.63 2.136,1.552 c 1.431,1.027 2.839,2.086 4.322,3.038 l -1.698,3.741 C 10.561,13.32 8.851,12.073 7.14,10.829 5.406,9.613 3.754,8.291 2.09,6.984 0.667,5.892 -0.197,4.722 -0.531,3.54 -0.873,2.363 -0.692,1.185 0,0" style="fill:#e30613;fill-opacity:1;fill-rule:nonzero;stroke:none" id="path146"/></g><g id="g148" transform="translate(337.5547,426.5436)"><path d="m 0,0 c 1.892,-4.438 3.849,-8.835 5.868,-13.19 1.152,-2.464 2.994,-2.794 5.579,-1.144 1.451,0.871 2.881,1.78 4.346,2.627 l 4.441,2.462 -1.285,3.734 c -1.324,-0.655 -2.592,-1.416 -3.891,-2.117 -1.304,-0.695 -2.569,-1.458 -3.827,-2.233 -1.823,4.454 -3.579,8.947 -5.269,13.48 2.877,1.625 5.75,3.26 8.722,4.709 l -1.172,4.041 C 9.917,10.598 6.403,8.67 2.957,6.631 -0.099,4.78 -1.096,2.563 0,0" style="fill:#e30613;fill-opacity:1;fill-rule:nonzero;stroke:none" id="path150"/></g><g id="g152" transform="translate(356.3506,432.4894)"><path d="m 0,0 -1.449,-0.725 1.199,-3.983 1.556,0.787 1.801,-6.041 c 1.908,0.984 3.897,1.796 5.839,2.705 l -1.567,6.102 4.556,1.887 c 0.727,-3.353 1.489,-6.692 2.287,-10.017 1.889,0.82 3.851,1.452 5.778,2.176 C 18.635,0.272 17.483,7.611 16.497,15.052 14.191,14.364 11.935,13.535 9.673,12.716 10.149,10.033 10.648,7.36 11.17,4.695 9.564,4.072 7.977,3.398 6.379,2.751 5.601,6.077 4.859,9.417 4.154,12.773 3.008,12.293 1.846,11.851 0.714,11.336 L -2.676,9.789 C -1.819,6.51 -0.927,3.247 0,0" style="fill:#e30613;fill-opacity:1;fill-rule:nonzero;stroke:none" id="path154"/></g><g id="g156" transform="translate(388.7837,447.6965)"><path d="m 0,0 c 0.176,-4.813 0.428,-9.61 0.755,-14.39 -1.561,-0.353 -3.122,-0.707 -4.658,-1.156 -0.498,4.763 -0.928,9.568 -1.272,14.352 z m -12.037,-3.022 c 0.58,-4.807 1.235,-9.592 1.963,-14.353 0.428,-2.656 2.106,-3.427 5.082,-2.61 l 3.744,1.027 3.782,0.88 c 1.524,0.374 2.663,0.927 3.419,1.75 0.753,0.828 1.122,1.93 1.096,3.3 C 6.935,-8.246 6.894,-3.437 6.932,1.36 6.97,4.089 5.213,5.138 1.631,4.458 0.135,4.199 -1.344,3.859 -2.821,3.512 -4.297,3.158 -5.786,2.859 -7.249,2.456 -10.762,1.487 -12.38,-0.309 -12.037,-3.022" style="fill:#e30613;fill-opacity:1;fill-rule:nonzero;stroke:none" id="path158"/></g><g id="g160" transform="translate(411.6357,450.7756)"><path d="m 0,0 c -0.547,-4.773 -1.018,-9.543 -1.412,-14.307 -1.6,-0.085 -3.187,-0.31 -4.781,-0.457 0.225,4.78 0.526,9.567 0.902,14.362 C -3.533,-0.189 -1.765,-0.117 0,0 m -12.346,-1.176 c -0.152,-4.83 -0.227,-9.65 -0.227,-14.457 0.019,-2.659 1.576,-3.775 4.633,-3.34 1.284,0.161 2.575,0.272 3.863,0.413 l 1.932,0.203 1.94,0.123 c 1.568,0.097 2.776,0.512 3.646,1.244 0.87,0.703 1.4,1.72 1.579,3.078 0.602,4.737 1.279,9.476 2.03,14.217 C 7.494,2.982 5.914,4.315 2.276,4.203 -0.749,4.002 -3.78,3.884 -6.792,3.52 -10.418,3.181 -12.271,1.523 -12.346,-1.176" style="fill:#e30613;fill-opacity:1;fill-rule:nonzero;stroke:none" id="path162"/></g><g id="g164" transform="translate(419.2187,432.8605)"><path d="M 0,0 C 1.046,0.032 2.093,0.046 3.139,0.007 5.172,0.843 7.25,1.773 9.356,2.5 c 2.11,0.766 4.262,1.567 6.44,2.207 l 1.178,4.239 C 13.722,8.087 10.528,6.978 7.422,5.921 8.504,11.291 9.684,16.62 10.963,21.962 8.543,22.151 6.118,22.168 3.693,22.22 2.986,18.53 2.324,14.84 1.709,11.148 1.093,7.432 0.523,3.715 0,0" style="fill:#e30613;fill-opacity:1;fill-rule:nonzero;stroke:none" id="path166"/></g><g id="g168" transform="translate(463.2187,445.1642)"><path d="m 0,0 c -2.104,-4.328 -4.133,-8.678 -6.087,-13.047 -0.772,0.206 -1.54,0.435 -2.317,0.623 l -2.34,0.538 c 1.797,4.441 3.67,8.865 5.616,13.269 C -3.411,0.954 -1.709,0.46 0,0 m -12.045,2.983 c -1.745,-4.512 -3.413,-9.041 -5.007,-13.583 -0.865,-2.531 0.245,-4.047 3.265,-4.682 2.522,-0.583 5.053,-1.134 7.537,-1.862 3.031,-0.785 5.103,-0.124 6.357,2.34 2.146,4.275 4.364,8.527 6.655,12.755 C 8.076,0.339 7.016,2.085 3.539,3.188 2.1,3.672 0.619,4.016 -0.839,4.435 -2.304,4.833 -3.763,5.254 -5.247,5.573 -8.795,6.407 -11.075,5.535 -12.045,2.983" style="fill:#e30613;fill-opacity:1;fill-rule:nonzero;stroke:none" id="path170"/></g><g id="g172" transform="translate(473.3164,441.8605)"><path d="M 0,0 C 1.111,-0.413 2.236,-0.792 3.337,-1.234 L 1.126,-4.723 -2,-3.588 l -2.012,-3.627 3.105,-1.17 -2.035,-3.532 c -0.631,-1.094 -1.425,-1.453 -2.392,-1.073 l -1.489,0.563 -1.951,-3.691 4.376,-1.653 c 2.917,-1.131 5.056,-0.6 6.51,1.727 l 3.302,5.192 c 2.53,-1.171 5.095,-2.27 7.562,-3.572 l 2.468,3.363 c -1.292,0.642 -2.557,1.337 -3.871,1.932 l -3.932,1.806 2.25,3.364 4.042,-1.847 3.967,-1.999 2.515,3.249 C 14.484,-1.415 8.304,1.242 2.017,3.582 Z" style="fill:#e30613;fill-opacity:1;fill-rule:nonzero;stroke:none" id="path174"/></g><g id="g176" transform="translate(491.1094,413.2443)"><path d="M 0,0 C 0.885,-0.547 1.784,-1.069 2.658,-1.634 L 5.256,-3.362 9.844,1.549 C 9.071,-2.208 8.137,-6.001 7.152,-9.672 c 1.594,-1.103 3.084,-2.344 4.618,-3.528 1.832,5.126 3.565,10.469 5.012,15.78 2.168,0.67 4.323,1.239 6.524,1.789 2.193,0.539 4.461,1.092 6.698,1.531 -1.885,1.556 -3.828,3.043 -5.759,4.542 -2.627,-0.607 -5.202,-1.257 -7.723,-1.946 1.937,1.944 3.893,3.874 5.871,5.789 -1.941,1.451 -3.996,2.739 -6.003,4.092 C 10.771,12.428 5.271,6.243 0,0" style="fill:#e30613;fill-opacity:1;fill-rule:nonzero;stroke:none" id="path178"/></g><g id="g180" transform="translate(518.168,416.4587)"><path d="m 0,0 2.727,-2.287 -3.22,-2.665 c -0.885,0.733 -1.75,1.489 -2.651,2.202 l -3.057,-2.73 c 0.879,-0.664 1.701,-1.397 2.545,-2.106 l -4.678,-4.033 c -2.019,-1.796 -1.815,-3.72 0.591,-5.74 l 3.443,-3.162 c 1.144,-1.059 2.22,-2.187 3.335,-3.275 l 3.236,2.358 -2.249,2.204 -1.124,1.102 -1.166,1.056 c -0.838,0.826 -0.718,1.66 0.369,2.497 l 3.271,2.557 c 2.086,-1.862 4.012,-3.891 5.993,-5.859 l 3.376,2.324 c -0.967,1.054 -2.019,2.025 -3.025,3.041 -1.013,1.011 -2.03,2.015 -3.101,2.965 l 3.26,2.484 c 1.108,-0.983 2.122,-2.064 3.183,-3.096 1.05,-1.042 2.11,-2.076 3.103,-3.175 l 3.468,2.285 C 13.056,-6.201 8.231,-1.572 3.07,2.659 Z" style="fill:#e30613;fill-opacity:1;fill-rule:nonzero;stroke:none" id="path182"/></g><g id="g184" transform="translate(519.3408,390.382)"><path d="M 0,0 2.141,-2.282 C 2.846,-3.051 3.512,-3.854 4.2,-4.638 7.848,-2.38 11.536,-0.17 15.265,1.993 12.846,-1.685 10.295,-5.33 7.712,-8.862 l 1.458,-1.831 c 1.765,-2.503 3.915,-3.144 6.474,-1.971 5.518,2.704 11.11,5.305 16.771,7.801 -0.698,1.012 -1.375,2.039 -2.095,3.036 l -2.196,2.964 c -3.079,-1.55 -6.137,-3.13 -9.171,-4.74 2.326,3.712 4.543,7.503 6.693,11.406 -1.528,1.953 -3.205,3.782 -4.806,5.674 C 13.757,9.168 6.79,4.658 0,0" style="fill:#e30613;fill-opacity:1;fill-rule:nonzero;stroke:none" id="path186"/></g><g id="g188" transform="translate(549.9727,380.8351)"><path d="m 0,0 3.268,-5.296 c 1.017,-1.808 2.056,-3.604 3.05,-5.425 -2.619,-0.842 -5.267,-1.731 -7.88,-2.631 l -1.616,2.939 -3.805,-1.508 2.376,-4.2 c 1.541,-2.813 3.578,-3.835 6.128,-3.09 2.634,0.795 5.257,1.558 7.903,2.303 2.614,0.718 3.205,2.7 1.527,5.869 -2.18,4.308 -4.645,8.462 -7.212,12.547 z m -16.94,-7.584 c 0.581,-0.862 1.186,-1.709 1.752,-2.582 l 1.657,-2.643 c 5.03,2.099 10.156,4.137 15.254,6.044 -1.19,2.015 -2.438,3.996 -3.684,5.976 -5.047,-2.183 -10.041,-4.448 -14.979,-6.795" style="fill:#e30613;fill-opacity:1;fill-rule:nonzero;stroke:none" id="path190"/></g><g id="g192" transform="translate(565.5518,349.0402)"><path d="m 0,0 c -4.746,-0.804 -9.467,-1.682 -14.16,-2.631 l -0.834,2.251 -0.926,2.214 c 4.659,1.119 9.349,2.167 14.066,3.143 z m -4.574,11.535 c -4.687,-1.203 -9.342,-2.476 -13.965,-3.82 -2.566,-0.768 -3.145,-2.548 -1.917,-5.38 l 1.496,-3.583 c 0.499,-1.194 0.911,-2.422 1.373,-3.631 0.274,-0.735 0.597,-1.363 0.972,-1.885 0.354,-0.528 0.755,-0.954 1.215,-1.273 0.918,-0.639 2.056,-0.86 3.412,-0.656 4.727,0.739 9.478,1.406 14.252,2 2.709,0.318 3.509,2.195 2.379,5.662 C 4.195,0.42 3.639,1.833 3.117,3.259 2.577,4.677 2.093,6.117 1.484,7.508 0.09,10.875 -1.933,12.229 -4.574,11.535" style="fill:#e30613;fill-opacity:1;fill-rule:nonzero;stroke:none" id="path194"/></g><g id="g196" transform="translate(544.1162,297.6379)"><path d="m 0,0 c 0,-68.578 -55.594,-124.171 -124.171,-124.171 -68.578,0 -124.171,55.593 -124.171,124.171 0,68.578 55.593,124.171 124.171,124.171 C -55.594,124.171 0,68.578 0,0" style="fill:#e30613;fill-opacity:1;fill-rule:nonzero;stroke:none" id="path198"/></g><g id="g200" transform="translate(539.7197,297.6379)"><path d="m 0,0 c 0,-66.149 -53.625,-119.774 -119.775,-119.774 -66.149,0 -119.774,53.625 -119.774,119.774 0,66.149 53.625,119.774 119.774,119.774 C -53.625,119.774 0,66.149 0,0" style="fill:#191917;fill-opacity:1;fill-rule:nonzero;stroke:none" id="path202"/></g><g id="g204" transform="translate(485.4834,232.9523)"><path d="M 0,0 C 0.093,0 0.259,-0.011 0.321,-0.083 0.346,-0.111 0.42,-0.232 0.358,-0.604 0.205,-1.526 -0.035,-2.46 -0.268,-3.363 c -0.047,-0.188 -0.096,-0.375 -0.144,-0.564 -0.009,-0.01 -0.022,-0.019 -0.031,-0.026 -1.21,-0.136 -2.406,-0.254 -3.669,-0.379 l -0.568,-0.057 -0.183,3.642 c 0.381,0.06 0.757,0.122 1.131,0.184 1.194,0.195 2.323,0.378 3.471,0.542 C -0.165,-0.007 -0.077,0 0,0 M 0.681,2.34 C -0.037,2.34 -0.761,2.183 -1.53,1.858 -2.658,1.384 -3.657,1.153 -4.584,1.153 c -0.656,0 -1.293,0.118 -1.895,0.353 -0.208,0.08 -0.39,0.12 -0.557,0.12 -0.272,0 -0.499,-0.108 -0.641,-0.306 C -7.869,1.054 -7.88,0.667 -7.71,0.17 l 0.076,-0.219 c 0.149,-0.43 0.289,-0.835 0.364,-1.247 0.134,-0.742 0.255,-1.501 0.373,-2.235 0.116,-0.727 0.236,-1.477 0.369,-2.214 0.108,-0.604 0.306,-1.183 0.485,-1.67 0.091,-0.248 0.316,-0.364 0.481,-0.45 0.041,-0.021 0.083,-0.041 0.118,-0.066 l 0.39,-0.262 0.22,0.415 c 0.021,0.038 0.045,0.075 0.07,0.113 0.086,0.132 0.194,0.298 0.214,0.511 0.027,0.272 0.023,0.537 0.019,0.816 0.019,0 0.04,0.001 0.06,0.002 0.319,0.013 0.62,0.024 0.923,0.049 0.444,0.036 0.89,0.069 1.336,0.102 1.195,0.088 2.433,0.18 3.646,0.341 0.516,0.069 1.082,0.18 1.243,0.626 0.136,0.378 -0.1,0.757 -0.413,1.119 l 1.445,2.804 V 1.384 L 3.5,1.506 C 2.536,2.066 1.614,2.34 0.681,2.34" style="fill:#e30613;fill-opacity:1;fill-rule:nonzero;stroke:none" id="path206"/></g><g id="g208" transform="translate(480.1445,213.4816)"><path d="m 0,0 c -0.025,-0.291 -0.15,-0.446 -0.231,-0.446 -0.04,0 -0.114,0.033 -0.2,0.127 -0.555,0.604 -1.202,0.886 -2.035,0.886 -0.378,0 -0.752,-0.056 -1.113,-0.111 C -3.796,0.423 -4,0.393 -4.204,0.373 -5.14,0.284 -6.05,0.171 -7.015,0.051 -7.271,0.02 -7.528,-0.013 -7.788,-0.044 v 3.123 c 0.296,0.012 0.589,0.024 0.881,0.034 1.036,0.041 2.014,0.079 3.012,0.145 0.75,0.05 1.457,0.161 2.1,0.331 0.411,0.108 0.774,0.582 0.855,0.957 0.031,0.144 -0.003,0.294 -0.102,0.443 -0.152,0.232 -0.491,0.507 -0.795,0.568 -0.338,0.066 -0.67,0.1 -0.984,0.1 -0.21,0 -0.413,-0.015 -0.605,-0.046 C -4.56,5.431 -5.669,5.223 -6.845,5.003 -7.13,4.949 -7.418,4.896 -7.708,4.842 v 2.659 l 0.803,0.091 c 0.92,0.103 1.835,0.207 2.749,0.313 0.664,0.077 1.327,0.158 1.991,0.24 l 0.924,0.112 c 0.112,0.014 0.214,0.02 0.303,0.02 0.391,0 0.593,-0.093 0.684,-0.626 C -0.036,6.363 0.099,4.963 0.159,3.37 0.2,2.28 0.102,1.155 0.006,0.066 Z m 0.352,10.803 c -0.091,0.026 -0.191,0.039 -0.295,0.039 -0.221,0 -0.437,-0.057 -0.628,-0.108 -0.05,-0.013 -0.1,-0.026 -0.148,-0.038 C -1.195,10.582 -1.673,10.449 -2.136,10.32 -3.095,10.055 -4.087,9.778 -5.063,9.672 -5.548,9.619 -6.082,9.594 -6.695,9.594 c -0.574,0 -1.162,0.021 -1.732,0.043 -0.458,0.017 -0.932,0.035 -1.4,0.041 l -0.074,10e-4 c -0.376,0 -0.753,-0.041 -0.96,-0.334 -0.221,-0.315 -0.103,-0.715 0.026,-1.067 l 0.03,-0.084 c 0.067,-0.177 0.129,-0.345 0.134,-0.485 l 0.007,-0.232 c 0.093,-2.905 0.188,-5.909 0.246,-8.863 0.016,-0.794 0.132,-1.817 0.901,-2.683 l 0.116,-0.13 0.81,-0.053 0.725,2.304 1.091,0.037 c 1.753,0.061 3.566,0.124 5.373,0.161 0.058,-0.02 0.188,-0.118 0.243,-0.207 0.551,-0.904 0.763,-1.611 0.706,-2.363 -0.029,-0.39 0.251,-0.9 0.6,-1.092 0.089,-0.049 0.192,-0.074 0.306,-0.074 0.314,0 0.725,0.195 0.914,0.434 l 0.034,0.042 c 0.34,0.427 0.726,0.91 0.864,1.474 0.236,0.965 0.516,2.234 0.591,3.502 C 2.937,1.31 2.955,2.675 2.973,3.994 2.981,4.696 2.991,5.397 3.009,6.099 3.024,6.677 3.095,6.97 3.471,7.178 3.733,7.324 3.825,7.674 3.857,7.87 3.906,8.175 3.859,8.405 3.72,8.556 2.612,9.75 1.542,10.464 0.352,10.803" style="fill:#e30613;fill-opacity:1;fill-rule:nonzero;stroke:none" id="path210"/></g><g id="g212" transform="translate(470.9678,228.0373)"><path d="m 0,0 0.166,-0.229 c 1.032,-1.422 1.98,-2.547 3.243,-3.408 0.23,-0.157 0.479,-0.24 0.719,-0.24 0.485,0 0.892,0.335 1.034,0.853 0.11,0.399 0.198,1.202 -0.172,1.67 C 3.991,-0.094 2.639,0.589 1.065,0.619 0.886,0.619 0.733,0.557 0.587,0.496 0.524,0.471 0.454,0.442 0.373,0.414 L 0.264,0.378 c 0.431,0.516 1.016,0.779 1.902,0.904 1.142,0.16 2.262,0.486 3.345,0.8 L 5.636,2.118 C 5.947,2.208 6.123,2.488 6.265,2.714 6.312,2.791 6.358,2.863 6.4,2.916 L 6.667,3.249 6.329,3.509 C 6.267,3.557 6.207,3.612 6.146,3.668 5.962,3.838 5.752,4.03 5.465,4.1 5.333,4.132 5.188,4.148 5.033,4.148 4.758,4.148 4.488,4.099 4.26,4.05 3.326,3.851 2.416,3.642 1.452,3.42 1.305,3.386 1.157,3.352 1.009,3.318 1.017,3.358 1.024,3.399 1.032,3.439 1.135,3.983 1.232,4.497 1.315,5.035 1.402,5.605 1.46,5.982 1.575,6.1 1.692,6.218 2.077,6.288 2.66,6.394 L 2.701,6.401 C 3.404,6.528 4.098,6.68 4.832,6.84 5.17,6.914 5.515,6.989 5.873,7.064 L 6.517,7.2 6.124,7.726 C 5.473,8.595 4.733,9.017 3.865,9.017 3.709,9.017 3.547,9.003 3.383,8.974 2.715,8.858 2.059,8.675 1.423,8.498 1.19,8.433 0.957,8.368 0.723,8.306 0.046,8.127 -0.63,7.944 -1.355,7.748 c 0.045,0.065 0.09,0.131 0.136,0.195 0.567,0.814 1.103,1.582 1.611,2.363 0.2,0.307 0.453,0.775 0.336,1.273 -0.118,0.502 -0.561,0.816 -0.883,1.007 -0.447,0.265 -0.944,0.478 -1.438,0.617 -0.164,0.046 -0.302,0.068 -0.424,0.068 -0.286,0 -0.455,-0.125 -0.545,-0.229 -0.213,-0.246 -0.196,-0.597 -0.149,-0.907 0.073,-0.494 0.065,-0.909 -0.026,-1.232 C -2.896,10.341 -3.155,9.81 -3.478,9.173 -4.375,7.404 -5.524,5.776 -6.895,4.332 -7.137,4.077 -7.306,3.783 -7.47,3.499 -7.538,3.382 -7.605,3.264 -7.678,3.151 L -7.874,2.83 -7.157,2.25 -6.911,2.375 c 0.072,0.037 0.147,0.07 0.223,0.103 0.195,0.085 0.417,0.183 0.608,0.344 0.48,0.408 0.958,0.831 1.421,1.24 0.405,0.359 0.81,0.718 1.221,1.07 0.084,0.072 0.338,0.29 0.547,0.337 0.412,0.093 0.843,0.154 1.343,0.224 0.05,0.007 0.101,0.014 0.153,0.022 C -1.414,5.603 -1.433,5.491 -1.451,5.38 -1.609,4.437 -1.759,3.547 -1.935,2.657 -1.978,2.624 -2.058,2.581 -2.106,2.57 -4.677,2.049 -6.957,1.602 -9.078,1.202 -9.538,1.116 -10.006,1.063 -10.502,1.009 -10.734,0.982 -10.971,0.956 -11.211,0.926 l -0.6,-0.076 0.28,-0.534 c 0.584,-1.115 1.279,-1.613 2.255,-1.613 0.172,0 0.352,0.016 0.548,0.047 0.66,0.105 1.35,0.241 2.112,0.413 1.05,0.238 2.079,0.482 3.17,0.739 0.195,0.046 0.39,0.093 0.588,0.139 -1.223,-2.926 -3.166,-5.391 -5.776,-7.328 -0.304,-0.225 -0.574,-0.482 -0.836,-0.73 -0.116,-0.11 -0.233,-0.22 -0.351,-0.327 l -0.275,-0.247 0.569,-0.814 0.296,0.092 c 0.086,0.026 0.175,0.05 0.264,0.074 0.219,0.057 0.446,0.118 0.668,0.226 3.944,1.914 6.626,4.711 7.972,8.312 C -0.228,-0.435 -0.12,-0.204 0,0" style="fill:#e30613;fill-opacity:1;fill-rule:nonzero;stroke:none" id="path214"/></g><g id="g216" transform="translate(424.3887,232.2473)"><path d="M 0,0 C 0.517,0.081 1.033,0.163 1.55,0.243 1.624,0.255 1.697,0.268 1.771,0.28 1.979,0.315 2.176,0.35 2.363,0.355 H 2.39 C 2.523,0.355 2.584,0.323 2.598,0.307 2.612,0.289 2.632,0.218 2.601,0.078 2.191,-1.729 1.775,-3.535 1.36,-5.341 L 1.281,-5.685 C 1.269,-5.741 1.254,-5.797 1.239,-5.854 c -0.394,0.149 -0.814,0.221 -1.27,0.221 -0.595,0 -1.176,-0.122 -1.739,-0.24 -0.34,-0.071 -0.668,-0.14 -0.992,-0.183 v 1.925 l 2.212,0.325 c 0.153,0.023 0.306,0.042 0.46,0.063 0.387,0.05 0.787,0.102 1.182,0.193 0.324,0.074 0.716,0.387 0.782,0.734 0.066,0.347 -0.197,0.837 -0.533,0.987 -0.468,0.209 -0.953,0.371 -1.424,0.527 l -0.328,0.11 c -0.068,0.023 -0.142,0.034 -0.22,0.034 -0.112,0 -0.322,-0.025 -0.465,-0.188 -0.287,-0.328 -0.695,-0.41 -1.168,-0.505 -0.163,-0.033 -0.331,-0.066 -0.5,-0.112 -0.009,0.529 -0.146,1.019 -0.411,1.477 0.399,0.056 0.771,0.11 1.142,0.168 C -1.355,-0.214 -0.678,-0.106 0,0 m 0.924,-9.282 c -0.967,-0.223 -1.967,-0.453 -2.951,-0.668 -0.184,-0.04 -0.369,-0.072 -0.569,-0.106 0.045,0.39 -0.088,0.772 -0.397,1.157 -0.16,0.197 -0.305,0.407 -0.454,0.628 0.106,0.015 0.212,0.032 0.317,0.047 0.641,0.097 1.303,0.197 1.946,0.224 0.176,0.008 0.353,0.015 0.53,0.015 0.722,0 1.212,-0.112 1.636,-0.37 0.272,-0.166 0.556,-0.298 0.831,-0.426 L 1.906,-8.824 C 1.706,-8.898 1.518,-9.019 1.344,-9.185 1.316,-9.193 1.268,-9.204 1.233,-9.212 Z m -11.027,4.667 c 0.102,-0.046 0.204,-0.091 0.304,-0.135 0.219,-0.097 0.425,-0.187 0.626,-0.289 0.315,-0.16 0.641,-0.237 0.999,-0.237 0.445,0 0.856,0.12 1.253,0.236 0.192,0.056 0.372,0.108 0.551,0.146 0.158,0.034 0.313,0.077 0.465,0.122 v -1.87 l -3.721,-0.68 -0.578,2.753 z m 3.928,3.563 c 0.209,-0.438 0.3,-0.934 0.284,-1.552 -0.566,-0.127 -1.132,-0.25 -1.698,-0.374 -0.658,-0.142 -1.315,-0.285 -1.971,-0.433 -0.021,-0.005 -0.044,-0.009 -0.066,-0.013 -0.397,-0.066 -0.633,-0.25 -0.704,-0.548 l -0.514,2.455 0.098,0.012 c 0.411,0.049 0.82,0.097 1.227,0.151 l 0.625,0.081 c 0.785,0.101 1.597,0.206 2.394,0.335 0.065,0.01 0.119,0.016 0.162,0.016 0.077,0 0.101,0 0.163,-0.13 M 6.322,1.782 C 5.873,2.029 5.313,2.338 4.743,2.573 L 4.612,2.627 C 4.215,2.794 3.804,2.966 3.343,2.966 2.955,2.966 2.591,2.837 2.261,2.584 2.204,2.541 2.028,2.516 1.899,2.497 1.853,2.49 1.807,2.483 1.762,2.476 0.189,2.216 -1.026,2.021 -2.155,1.852 -2.259,2.327 -2.404,2.837 -2.7,3.291 c 0.347,0.159 0.694,0.32 1.041,0.48 1.301,0.601 2.645,1.223 3.977,1.812 0.423,0.187 0.86,0.333 1.323,0.488 0.264,0.088 0.529,0.177 0.79,0.274 0.511,0.188 0.653,0.514 0.692,0.692 0.038,0.178 0.045,0.53 -0.351,0.92 C 4.675,8.052 4.555,8.17 4.391,8.249 L 4.201,8.34 C 3.317,8.764 2.403,9.202 1.489,9.606 1.405,9.645 1.312,9.663 1.209,9.663 1.049,9.663 0.868,9.616 0.64,9.516 0.503,9.455 0.382,9.378 0.274,9.309 0.162,9.236 0.055,9.168 -0.034,9.143 -1.074,8.851 -2.254,8.52 -3.407,8.265 -4.718,7.975 -6.107,7.706 -7.535,7.466 -8.567,7.293 -9.675,7.144 -11.022,6.998 -11.474,6.949 -11.942,6.926 -12.395,6.904 -12.741,6.887 -13.099,6.869 -13.454,6.841 -13.477,6.839 -13.5,6.838 -13.524,6.836 -13.742,6.825 -14.321,6.796 -14.433,6.12 l -0.047,-0.286 0.252,-0.146 c 0.136,-0.078 0.27,-0.161 0.404,-0.244 0.326,-0.203 0.663,-0.413 1.041,-0.559 l 0.066,-0.026 c 0.459,-0.178 0.979,-0.38 1.495,-0.38 0.092,0 0.182,0.006 0.267,0.02 1.022,0.154 2.042,0.388 3.027,0.614 0.429,0.099 0.858,0.197 1.287,0.289 1.787,0.383 3.388,0.724 4.87,1.035 C -2.344,5.93 -2.921,5.427 -3.508,4.916 L -3.588,4.847 C -3.972,4.511 -4.226,4.304 -4.6,4.304 c -0.047,0 -0.096,0.004 -0.147,0.01 -0.931,0.121 -1.878,0.169 -2.795,0.216 L -7.931,4.55 -7.964,4.551 C -8.185,4.551 -8.36,4.437 -8.488,4.355 -8.522,4.333 -8.556,4.311 -8.59,4.293 L -9.024,4.076 -8.747,3.68 C -8.723,3.646 -8.702,3.607 -8.68,3.569 -8.604,3.439 -8.511,3.277 -8.34,3.161 -8.076,2.982 -7.804,2.813 -7.542,2.649 -7.238,2.461 -6.924,2.266 -6.631,2.061 -6.31,1.835 -5.985,1.584 -5.713,1.267 -5.983,1.225 -6.248,1.185 -6.514,1.149 -7.251,1.052 -8.125,0.939 -9.004,0.84 L -9.163,0.821 C -9.796,0.75 -10.452,0.676 -11.092,0.641 -11.213,0.634 -11.334,0.623 -11.455,0.612 -11.64,0.596 -11.815,0.58 -11.986,0.58 c -0.284,0 -0.5,0.044 -0.702,0.144 -0.356,0.175 -0.74,0.23 -1.111,0.283 -0.072,0.01 -0.143,0.02 -0.213,0.031 -0.063,0.01 -0.121,0.015 -0.175,0.015 -0.328,0 -0.492,-0.169 -0.56,-0.271 -0.09,-0.133 -0.167,-0.366 -0.022,-0.72 0.057,-0.137 0.117,-0.274 0.177,-0.41 0.149,-0.336 0.289,-0.654 0.37,-0.977 0.535,-2.134 0.99,-4.048 1.389,-5.851 0.174,-0.779 0.501,-1.761 1.502,-2.43 0.311,-0.208 0.58,-0.305 0.846,-0.305 0.464,0 0.798,0.305 1.008,0.533 0.029,0.031 0.084,0.062 0.114,0.067 1.072,0.217 2.049,0.404 2.983,0.572 0.01,-0.039 0.02,-0.077 0.03,-0.116 0.082,-0.319 0.161,-0.619 0.118,-0.854 -0.174,-0.941 -0.44,-1.259 -1.053,-1.259 -0.024,0 -0.12,0.002 -0.12,0.002 -0.134,0 -0.255,-0.022 -0.362,-0.043 -0.036,-0.007 -0.072,-0.013 -0.109,-0.018 l -1.143,-0.174 c -1.615,-0.246 -3.286,-0.5 -4.928,-0.76 -0.197,-0.031 -0.352,-0.13 -0.489,-0.217 -0.051,-0.032 -0.105,-0.066 -0.163,-0.097 l -0.615,-0.329 0.579,-0.388 c 0.114,-0.076 0.216,-0.152 0.311,-0.222 0.215,-0.157 0.419,-0.307 0.661,-0.406 0.094,-0.039 0.193,-0.092 0.298,-0.149 0.275,-0.148 0.588,-0.316 0.982,-0.316 0.093,0 0.187,0.01 0.279,0.028 0.224,0.047 0.446,0.096 0.669,0.144 0.308,0.066 0.615,0.134 0.924,0.195 0.845,0.17 1.691,0.336 2.536,0.502 l 0.214,0.042 c -0.102,-0.165 -0.206,-0.331 -0.312,-0.491 -0.802,-1.222 -1.758,-2.623 -2.948,-3.804 -0.905,-0.896 -1.881,-1.846 -2.893,-2.717 -0.452,-0.389 -0.939,-0.727 -1.455,-1.086 -0.269,-0.187 -0.539,-0.374 -0.802,-0.569 -0.14,-0.102 -0.204,-0.242 -0.247,-0.335 -0.009,-0.019 -0.018,-0.039 -0.028,-0.055 l -0.251,-0.444 0.485,-0.167 c 0.017,-0.006 0.035,-0.014 0.053,-0.023 0.084,-0.038 0.199,-0.092 0.338,-0.092 0.07,0 0.137,0.014 0.199,0.04 0.165,0.069 0.332,0.136 0.499,0.202 0.523,0.208 1.063,0.424 1.562,0.722 1.517,0.907 2.729,1.688 3.816,2.46 1.22,0.865 2.366,1.975 3.606,3.497 0.761,0.931 1.446,1.935 2.108,2.907 l 0.331,0.484 c 0.134,0.196 0.25,0.272 0.475,0.311 1.494,0.261 3.059,0.548 4.788,0.878 0.026,0.005 0.051,0.007 0.078,0.007 0.102,0 0.195,-0.039 0.24,-0.103 0.054,-0.075 0.031,-0.183 0.004,-0.261 -0.131,-0.366 -0.259,-0.732 -0.387,-1.097 -0.324,-0.931 -0.659,-1.892 -1.035,-2.814 -0.382,-0.937 -0.869,-1.862 -1.339,-2.755 l -0.04,-0.076 c -0.088,-0.167 -0.275,-0.267 -0.502,-0.267 -0.064,0 -0.128,0.009 -0.19,0.025 -0.325,0.085 -0.647,0.175 -0.97,0.264 -0.475,0.132 -0.967,0.267 -1.457,0.388 -0.08,0.02 -0.165,0.03 -0.258,0.03 -0.113,0 -0.22,-0.014 -0.314,-0.027 -0.055,-0.007 -0.11,-0.015 -0.164,-0.018 l -0.722,-0.042 0.392,-0.605 c 0.032,-0.048 0.062,-0.099 0.092,-0.15 0.079,-0.136 0.17,-0.289 0.299,-0.426 0.175,-0.184 0.358,-0.361 0.535,-0.532 0.235,-0.228 0.457,-0.442 0.661,-0.673 0.664,-0.749 1.187,-1.591 1.599,-2.572 0.074,-0.177 0.3,-0.713 0.808,-0.713 0.34,0 0.608,0.252 0.803,0.472 l 0.163,0.181 c 0.468,0.523 0.952,1.065 1.329,1.679 0.559,0.91 1.062,1.878 1.494,2.876 0.466,1.078 0.908,2.185 1.335,3.256 0.258,0.65 0.518,1.301 0.784,1.949 0.059,0.143 0.113,0.288 0.169,0.434 0.225,0.601 0.438,1.17 0.973,1.612 l 0.34,0.281 -0.299,0.324 c -0.072,0.078 -0.138,0.159 -0.203,0.238 -0.167,0.203 -0.339,0.412 -0.577,0.567 -0.501,0.325 -1.034,0.599 -1.551,0.862 l -0.133,0.07 c -0.186,0.094 -0.393,0.191 -0.614,0.256 0.065,0.036 0.127,0.078 0.189,0.128 0.68,0.554 1,1.277 1.243,1.976 0.186,0.537 0.371,1.073 0.557,1.61 0.468,1.357 0.953,2.76 1.45,4.13 0.115,0.317 0.324,0.642 0.588,0.916 0.281,0.294 0.513,0.76 0.019,1.313 C 6.74,1.493 6.534,1.665 6.322,1.782" style="fill:#e30613;fill-opacity:1;fill-rule:nonzero;stroke:none" id="path218"/></g><g id="g220" transform="translate(375.8027,232.7863)"><path d="M 0,0 C -0.809,1.135 -2.009,1.741 -3.667,1.854 -3.91,1.871 -4.162,1.88 -4.416,1.88 -5.795,1.88 -7.153,1.635 -8.352,1.419 -9.018,1.299 -9.685,1.183 -10.366,1.064 l -0.439,-0.076 c 0.038,2.266 0.675,4.491 2.035,7.139 l 0.182,0.352 -0.345,0.2 c -0.161,0.093 -0.322,0.18 -0.482,0.265 -0.32,0.172 -0.622,0.334 -0.875,0.534 -0.834,0.658 -1.707,0.978 -2.669,0.978 -0.181,0 -0.367,-0.012 -0.555,-0.035 -0.046,0.005 -0.089,0.008 -0.128,0.008 -0.266,0 -0.426,-0.112 -0.514,-0.205 -0.209,-0.223 -0.187,-0.532 -0.179,-0.633 0.024,-0.338 0.039,-0.685 0.054,-1.02 0.02,-0.45 0.041,-0.916 0.084,-1.377 0.227,-2.444 0.041,-4.885 -0.554,-7.256 -0.021,-0.084 -0.039,-0.113 -0.038,-0.114 -0.005,-0.003 -0.03,-0.011 -0.087,-0.016 -1.176,-0.102 -2.565,-0.224 -3.963,-0.363 l -0.656,-0.064 c -1.214,-0.12 -2.47,-0.243 -3.703,-0.409 -0.728,-0.098 -1.413,-0.356 -2.035,-0.765 l -0.358,-0.234 0.241,-0.352 c 0.689,-1.003 1.527,-1.532 2.561,-1.616 0.228,-0.019 0.437,-0.027 0.639,-0.027 0.384,0 0.724,0.033 1.04,0.101 0.731,0.157 1.461,0.353 2.166,0.542 0.395,0.106 0.79,0.211 1.186,0.311 0.438,0.11 0.958,0.223 1.49,0.223 0.278,0 0.539,-0.031 0.791,-0.093 -0.904,-3.567 -2.477,-6.843 -4.674,-9.742 -2.011,-2.653 -4.603,-5.112 -7.923,-7.518 -0.166,-0.12 -0.331,-0.241 -0.496,-0.363 l -0.512,-0.374 0.307,-0.755 0.338,0.06 c 0.138,0.025 0.278,0.044 0.418,0.064 0.327,0.045 0.666,0.092 0.998,0.204 3.248,1.086 5.989,3.027 8.38,5.934 2.222,2.701 3.805,5.747 5.059,8.371 0.447,0.934 0.886,1.872 1.325,2.811 0.411,0.88 0.823,1.761 1.239,2.634 0.009,0.013 0.028,0.035 0.048,0.052 0.163,-0.013 0.331,-0.02 0.501,-0.02 0.849,0 1.67,0.17 2.463,0.334 l 0.325,0.066 c 0.522,0.106 1.055,0.147 1.618,0.189 0.228,0.017 0.456,0.034 0.683,0.056 0.018,0.001 0.035,0.002 0.051,0.002 0.014,0 0.024,0 0.032,-0.001 0.01,-0.02 0.028,-0.068 0.044,-0.166 0.46,-2.755 0.426,-5.66 -0.102,-8.63 -0.495,-2.78 -1.304,-5.066 -2.474,-6.99 -0.417,-0.685 -0.528,-0.753 -0.698,-0.753 -0.174,0 -0.452,0.076 -0.843,0.198 l -0.228,0.072 c -0.425,0.134 -0.864,0.272 -1.318,0.364 -0.133,0.027 -0.263,0.041 -0.386,0.041 -0.57,0 -1.014,-0.28 -1.36,-0.856 l -0.27,-0.45 0.502,-0.164 c 0.823,-0.265 1.141,-0.973 1.51,-1.794 l 0.038,-0.084 c 0.075,-0.167 0.159,-0.33 0.242,-0.493 0.069,-0.134 0.139,-0.268 0.202,-0.404 0.163,-0.353 0.457,-0.532 0.874,-0.532 l 0.024,10e-4 c 0.318,0.004 0.635,0.005 0.953,0.005 h 0.675 c 0.382,0 0.764,10e-4 1.145,0.008 0.244,0.005 0.6,0.097 0.806,0.34 0.111,0.132 0.224,0.262 0.337,0.393 0.425,0.489 0.865,0.996 1.204,1.572 1.193,2.026 1.737,4.224 2.187,6.901 0.212,1.265 0.404,2.554 0.589,3.801 0.155,1.042 0.315,2.119 0.486,3.175 0.233,1.437 0.521,2.955 1.233,4.343 C 0.268,-0.661 0.244,-0.342 0,0" style="fill:#e30613;fill-opacity:1;fill-rule:nonzero;stroke:none" id="path222"/></g></g></g><g id="g224" transform="matrix(0.72504312,0,0,-0.72504312,-171.45495,350.906)"><g id="g226" clip-path="url(#clipPath230)"><g id="g232" transform="translate(553.4375,282.8166)"><path d="m 0,0 c -0.116,0.084 -11.806,8.623 -23.971,23.012 -12.79,15.13 -17.577,19.865 -20.843,22.728 -2.744,2.403 -10.472,10.543 -14.858,16.893 -4.874,7.059 -6.62,9.131 -18.01,14.598 -6.493,3.116 -10.144,6.199 -13.365,8.92 -2.086,1.761 -4.057,3.425 -6.434,4.764 -3.173,1.785 -6.252,4.036 -8.969,6.022 -1.909,1.396 -3.559,2.602 -5,3.477 -1.252,0.759 -2.78,1.145 -4.543,1.145 -4.939,0 -11.26,-3.047 -16.498,-7.952 -4.503,-4.215 -14.087,-9.963 -22.542,-15.036 -3.192,-1.914 -6.208,-3.722 -8.814,-5.365 -6.714,-4.231 -24.58,-10.446 -36.402,-14.558 -4.646,-1.616 -8.315,-2.892 -10.447,-3.739 -4.909,-1.951 -8.015,-5.853 -8.106,-10.183 -0.045,-2.146 0.644,-4.146 1.944,-5.822 -5.819,-2.655 -16.256,-7.509 -25.368,-12.219 -13.806,-7.138 -21.225,-14.984 -21.534,-15.314 l -0.985,-1.053 0.206,-1.422 c 0.011,-0.076 0.266,-1.82 0.792,-4.716 l 0.001,-0.113 0.068,-0.264 c 0.092,-0.498 0.192,-1.032 0.303,-1.612 l 0.331,-1.694 c 0.189,-0.944 0.397,-1.949 0.621,-3.006 l 0.429,-1.972 c 0.271,-1.216 0.565,-2.487 0.886,-3.829 l 0.076,-0.313 c 2.779,-11.474 7.628,-27.34 14.947,-37.768 l 2.845,-4.054 2.319,4.375 c 0.099,0.185 10.064,18.771 25.772,30.045 l 0.089,0.065 0.084,0.069 c 1.502,1.251 3.279,2.552 3.727,2.757 0.524,0.173 0.988,0.451 1.367,0.81 1.746,-0.539 3.832,-0.97 6.038,-0.97 0.153,0 0.305,0.002 0.458,0.006 4.145,0.112 9.911,1.124 12.443,1.603 3.797,-2.473 16.627,-10.148 29.636,-10.148 0.207,0 0.413,0.002 0.62,0.006 10.589,0.199 17.583,2.028 20.909,3.146 1.684,-1.696 4.67,-3.831 9.025,-3.831 1.57,0 3.199,0.286 4.84,0.848 6.585,2.255 9.153,5.045 11.217,7.287 0.675,0.735 1.259,1.369 1.92,1.905 2.328,1.892 4.076,4.795 4.93,7.892 4.559,-2.777 12.377,-6.216 23.135,-6.216 3.267,0 6.626,0.323 10.019,0.962 3.294,-6.16 13.163,-24.386 17.048,-28.969 3.062,-3.609 12.034,-21.996 17.318,-33.473 l 1.665,-3.62 3.052,2.579 c 0.153,0.129 3.82,3.245 8.839,9.073 0.518,0.6 1.052,1.236 1.603,1.902 l 0.441,0.543 c 0.413,0.503 0.827,1.02 1.256,1.563 l 0.504,0.643 c 0.436,0.561 0.878,1.138 1.329,1.738 l 0.415,0.555 c 0.587,0.787 1.175,1.598 1.771,2.442 1.299,1.838 2.597,3.793 3.86,5.809 l 0.08,0.128 c 0.615,0.987 1.229,2.004 1.863,3.087 l -2.635,1.484 2.698,-1.375 c 7.937,13.608 12.918,28.047 14.806,42.919 l 0.221,1.76 z" style="fill:#e30613;fill-opacity:1;fill-rule:nonzero;stroke:none" id="path234"/></g><g id="g236" transform="translate(551.6533,280.3869)"><path d="m 0,0 c 0,0 -11.93,8.632 -24.506,23.508 -12.576,14.876 -17.385,19.652 -20.529,22.407 -3.144,2.754 -10.911,11.019 -15.35,17.447 -4.439,6.428 -5.733,8.265 -16.83,13.591 -11.097,5.326 -14.426,10.652 -19.974,13.774 -5.548,3.123 -10.727,7.53 -14.056,9.55 -3.329,2.021 -10.912,-0.367 -17.385,-6.427 -6.473,-6.061 -22.194,-14.693 -31.811,-20.754 -9.617,-6.061 -39.717,-15.519 -47.346,-18.55 -7.629,-3.03 -8.322,-10.881 -1.525,-13.912 0,0 -16.23,-7.208 -29.73,-14.187 -13.501,-6.979 -20.714,-14.693 -20.714,-14.693 0,0 5.178,-35.814 17.939,-53.995 0,0 10.172,19.238 26.679,31.084 0,0 3.468,2.892 4.716,3.305 1.248,0.414 -0.971,2.618 -0.971,2.618 0,0 4.577,-2.755 9.709,-2.618 5.133,0.138 13.178,1.791 13.178,1.791 0,0 14.981,-10.606 29.545,-10.331 14.565,0.276 21.916,3.719 21.916,3.719 0,0 3.884,-6.473 11.929,-3.719 8.045,2.755 9.155,6.199 12.206,8.678 3.052,2.48 4.855,7.301 4.301,11.157 0,0 13.315,-12.948 37.312,-7.438 0,0 13.317,-25.207 17.755,-30.442 4.438,-5.234 17.755,-34.16 17.755,-34.16 0,0 30.331,25.62 35.787,68.597" style="fill:#1d1d1b;fill-opacity:1;fill-rule:nonzero;stroke:none" id="path238"/></g><g id="g240" transform="translate(418.2148,319.7814)"><path d="m 0,0 c -1.11,6.061 -1.665,8.816 -11.652,8.127 -9.987,-0.689 -22.609,-7.576 -33.845,-7.163 -11.235,0.413 -22.054,-0.689 -29.128,-3.03 -7.075,-2.342 -21.778,-10.331 -32.32,-16.943 -8.651,-5.426 -16.14,-11.493 -18.552,-13.498 1.789,-9.779 6.611,-32.118 15.387,-46.463 3.729,7.905 11.458,16.34 15.788,21.117 4.993,5.51 13.87,11.295 13.94,12.23 0.069,0.934 -0.624,1.339 -1.595,3.68 -0.971,2.341 0.416,5.028 0.971,3.857 0.554,-1.171 1.387,-2.227 1.387,-2.227 6.011,-7.53 18.124,-5.234 21.731,-3.949 3.606,1.286 6.381,2.939 11.744,5.051 5.363,2.112 12.299,9.642 13.316,11.295 1.017,1.653 0.185,2.663 -2.312,3.306 -2.497,0.642 -7.952,4.775 -9.062,6.244 -1.11,1.47 -0.648,2.847 0.37,2.572 1.017,-0.276 4.068,-4.776 6.843,-6.429 2.774,-1.653 16.275,-1.468 13.963,-0.367 -2.312,1.102 -4.438,5.143 -5.178,6.887 -0.74,1.745 -0.555,5.418 1.109,1.47 1.665,-3.949 3.792,-5.969 5.641,-7.347 1.85,-1.377 4.439,-0.643 4.716,-0.275 0.278,0.367 -0.462,0.551 -1.294,3.306 -0.833,2.755 0.462,8.907 0.925,3.524 0.462,-5.383 3.976,-9.494 6.75,-11.973 2.774,-2.48 9.987,-3.214 5.363,-4.224 -4.623,-1.01 -9.016,5.74 -9.016,5.74 -3.884,-0.964 -12.622,-0.964 -12.622,-0.964 2.496,-9.781 9.987,-12.811 14.841,-11.572 4.855,1.241 8.878,1.103 15.351,2.893 6.473,1.791 2.543,11.984 1.294,16.116 C 3.606,-14.876 1.109,-6.061 0,0" style="fill:#e30613;fill-opacity:1;fill-rule:nonzero;stroke:none" id="path242"/></g><g id="g244" transform="translate(365.7827,274.6935)"><path d="m 0,0 c 0,0 8.785,0 12.854,1.836 4.068,1.837 6.75,4.867 7.952,4.684 C 22.008,6.336 27.002,2.663 34.307,2.479 41.613,2.296 44.942,3.673 46.699,1.836 48.456,0 49.103,-3.766 47.161,-5.693 45.219,-7.622 17.57,-13.866 0,0" style="fill:#e30613;fill-opacity:1;fill-rule:nonzero;stroke:none" id="path246"/></g><g id="g248" transform="translate(441.5869,282.6594)"><path d="m 0,0 c 0,0 0.416,1.103 -0.832,0.965 -1.248,-0.139 -6.797,-3.858 -11.582,-2.962 -4.785,0.895 -5.064,0.62 -4.785,0.138 0.277,-0.483 4.369,-3.651 4.854,-5.441 0.486,-1.791 0.832,-4.821 -1.457,-5.372 -2.288,-0.552 -5.132,2.893 -7.004,5.785 -1.873,2.893 -2.081,1.79 -2.358,1.515 -0.277,-0.275 -3.503,-4.121 -1.457,-8.678 2.046,-4.556 9.378,-4.339 12.006,-1.997 2.629,2.342 8.87,5.992 11.159,10.4 0,0 1.248,2.479 1.456,5.647" style="fill:#e30613;fill-opacity:1;fill-rule:nonzero;stroke:none" id="path250"/></g><g id="g252" transform="translate(420.0874,278.5275)"><path d="m 0,0 c 0,0 5.132,-3.65 5.618,-7.37 0.485,-3.719 5.391,0.584 2.774,4.408 C 5.774,0.862 4.37,1.928 2.774,1.377 1.179,0.826 0,0 0,0" style="fill:#e30613;fill-opacity:1;fill-rule:nonzero;stroke:none" id="path254"/></g><g id="g256" transform="translate(417.7983,326.3932)"><path d="m 0,0 c 0,0 8.045,-0.275 9.571,-5.028 1.526,-4.752 1.804,-9.366 3.26,-11.708 1.457,-2.342 3.606,-7.162 4.299,-10.744 0.695,-3.581 1.111,-9.986 0,-11.777 -1.109,-1.79 -9.015,-1.722 -9.015,-1.722 0,0 1.309,4.408 0.793,7.163 -0.516,2.755 -2.18,9.366 -4.469,15.358 C 2.15,-12.466 3.052,-4.683 1.803,-2.755 0.555,-0.827 0,0 0,0" style="fill:#e30613;fill-opacity:1;fill-rule:nonzero;stroke:none" id="path258"/></g><g id="g260" transform="translate(430.0508,319.506)"><path d="m 0,0 c 0,0 9.89,-0.918 11.603,-6.795 1.713,-5.877 1.806,-8.816 3.84,-12.948 2.035,-4.133 3.052,-12.489 -8.322,-10.836 0,0 1.757,6.519 -0.463,11.295 -2.219,4.775 -4.716,5.877 -5.825,13.591 z" style="fill:#e30613;fill-opacity:1;fill-rule:nonzero;stroke:none" id="path262"/></g><g id="g264" transform="translate(473.6982,352.0139)"><path d="m 0,0 c 0,0 2.127,-0.092 1.109,1.745 -1.016,1.836 -4.715,3.765 -7.582,5.693 -2.867,1.928 -8.507,7.53 -13.778,10.468 -5.271,2.939 -11.282,7.439 -13.687,8.908 -2.404,1.469 -7.305,0.827 -10.819,-2.112 -3.514,-2.939 -7.814,-7.53 -14.68,-10.916 -6.866,-3.387 -18.518,-11.446 -21.222,-13.787 -2.705,-2.341 12.276,3.72 14.218,4.615 1.941,0.896 13.801,4.477 18.448,7.576 4.646,3.1 15.05,6.268 21.569,1.86 6.52,-4.408 11.79,-9.092 16.991,-10.607 C -4.23,1.928 0,0 0,0" style="fill:#e30613;fill-opacity:1;fill-rule:nonzero;stroke:none" id="path266"/></g><g id="g268" transform="translate(521.6914,305.9035)"><path d="m 0,0 c -13.593,17.459 -21.777,26.275 -34.122,32.474 -12.346,6.198 -10.265,6.198 -17.478,7.438 -7.213,1.239 -12.669,10.606 -19.881,15.565 -7.213,4.959 -12.391,6.52 -20.622,2.204 -8.23,-4.316 -59.506,-21.351 -63.806,-23.83 0,0 -1.803,-6.199 -5.825,-7.714 -4.023,-1.515 -8.323,-0.826 -8.323,-0.826 0,0 0.832,-8.265 14.148,-5.923 0,0 -3.606,6.474 4.439,9.779 8.045,3.307 56.87,20.662 61.032,22.866 4.162,2.204 7.49,2.617 6.519,1.378 -0.971,-1.24 -55.067,-20.8 -59.09,-22.866 0,0 1.053,-7.667 -11.883,-8.437 0,0 -0.37,-5.016 5.456,-4.832 5.826,0.183 12.947,3.397 15.351,6.152 0,0 10.079,-0.918 16.275,4.592 0,0 13.778,-0.544 19.512,3.539 5.733,4.083 6.38,3.44 6.657,3.072 0.278,-0.367 -3.975,-4.499 -6.472,-5.142 -2.497,-0.643 -2.59,-1.745 -1.804,-2.112 0.786,-0.367 7.658,-0.184 13.84,3.673 6.181,3.857 4.516,-0.367 3.592,-0.826 -0.925,-0.459 -7.615,-5.051 -12.5,-4.867 0,0 6.142,-5.625 14.742,-2.457 8.6,3.168 9.224,4.339 10.334,3.65 1.109,-0.688 0,-2.823 -3.537,-4.442 -3.537,-1.618 -10.404,-1.618 -10.404,-1.618 0,0 3.26,-8.816 14.357,-21.764 11.097,-12.948 19.28,-18.734 28.297,-19.215 9.015,-0.482 13.455,6.405 15.258,7.093 1.803,0.689 2.219,-1.79 0.554,-4.82 -1.664,-3.031 -5.27,-6.612 -5.548,-8.403 -0.265,-1.713 22.115,-50.081 33.607,-58.759 8.729,10.133 21.664,28.74 26.341,53.926 C 24.013,-26.726 10.788,-13.855 0,0" style="fill:#e30613;fill-opacity:1;fill-rule:nonzero;stroke:none" id="path270"/></g><g id="g272" transform="translate(377.249,336.1271)"><path d="m 0,0 c 0,0 -8.484,-3.191 -9.663,-4.775 -1.179,-1.584 -0.625,-2.342 0.555,-2.273 1.179,0.069 5.479,0.551 7.282,3.168 C -0.023,-1.263 0,0 0,0" style="fill:#e30613;fill-opacity:1;fill-rule:nonzero;stroke:none" id="path274"/></g><g id="g276" transform="translate(364.2568,339.5475)"><path d="m 0,0 c 0,0 -8.808,-2.135 -11.929,-5.509 -3.121,-3.375 4.092,-1.842 5.34,-1.437 C -5.34,-6.542 -1.457,-4.201 0,0" style="fill:#e30613;fill-opacity:1;fill-rule:nonzero;stroke:none" id="path278"/></g><g id="g280" transform="translate(352.3276,336.1271)"><path d="m 0,0 c 0,0 -4.3,-5.188 0.694,-9.665 4.993,-4.477 2.704,-2.961 1.803,-3.375 -0.902,-0.413 -3.329,-0.138 -4.855,-0.689 -1.526,-0.55 -6.935,-1.239 -9.293,1.722 -2.358,2.962 0.277,3.582 1.803,3.169 1.526,-0.414 5.964,1.72 7.005,4.613 C -1.803,-1.332 -2.15,-0.804 0,0" style="fill:#e30613;fill-opacity:1;fill-rule:nonzero;stroke:none" id="path282"/></g><g id="g284" transform="translate(349.0684,335.3464)"><path d="M 0,0 C 0,0 -7.837,-3.443 -8.877,-5.716 -9.918,-7.989 -6.52,-7.094 -5.132,-6.611 -3.745,-6.129 -0.625,-4.132 0,0" style="fill:#e30613;fill-opacity:1;fill-rule:nonzero;stroke:none" id="path286"/></g></g></g></g></svg>